<svg width="38" height="43" viewBox="0 0 38 43" fill="none" xmlns="http://www.w3.org/2000/svg">
<g filter="url(#filter0_d)">
<circle cx="18.9999" cy="16.9999" r="11.56" fill="#E54861"/>
</g>
<circle cx="19" cy="17" r="17" fill="#E54861" fill-opacity="0.1"/>
<path d="M23.9497 21.9498C22.6276 23.2719 20.8698 24 19 24C17.1302 24 15.3724 23.2719 14.0503 21.9498C12.7281 20.6276 12 18.8698 12 17C12 15.1302 12.7281 13.3724 14.0503 12.0502C15.3724 10.7281 17.1302 10 19 10C20.8698 10 22.6276 10.7281 23.9497 12.0502C25.2719 13.3724 26 15.1302 26 17C26 18.8698 25.2719 20.6276 23.9497 21.9498ZM18.9013 10.8244C17.4799 10.8469 16.0651 11.3555 14.9302 12.3501L19 16.42L19.5946 15.8254C19.0589 15.1719 18.7233 14.3576 18.6181 13.446C18.5217 12.612 18.6197 11.7155 18.9013 10.8244ZM20.1787 15.2413L23.0698 12.3501C22.1091 11.5081 20.9478 11.0142 19.7517 10.8688C19.1673 12.5301 19.3285 14.1475 20.1787 15.2413ZM20.7587 15.8213C21.8525 16.6715 23.4699 16.8327 25.1312 16.2483C24.9858 15.0522 24.4919 13.8909 23.6499 12.9302L20.7587 15.8213ZM25.1756 17.0987C24.2844 17.3803 23.388 17.4782 22.554 17.3819C21.6424 17.2766 20.8281 16.941 20.1746 16.4054L19.58 17L23.6499 21.0698C24.6445 19.9349 25.1531 18.5201 25.1756 17.0987ZM17.2413 18.1787C16.1475 17.3285 14.5301 17.1673 12.8688 17.7517C13.0142 18.9478 13.5081 20.1091 14.3501 21.0698L17.2413 18.1787ZM14.9302 21.6499C15.8909 22.4919 17.0522 22.9858 18.2483 23.1312C18.8327 21.4699 18.6715 19.8525 17.8213 18.7587L14.9302 21.6499ZM19.3819 20.554C19.4783 21.3881 19.3803 22.2845 19.0987 23.1756C20.5201 23.1531 21.9349 22.6445 23.0698 21.6499L19 17.58L18.4054 18.1746C18.9411 18.8281 19.2767 19.6424 19.3819 20.554ZM12.8244 16.9016C13.493 16.6903 14.1644 16.5821 14.8104 16.5821C15.0254 16.5821 15.2377 16.594 15.446 16.618C16.3576 16.7233 17.1719 17.0589 17.8254 17.5945L18.42 17L14.3501 12.9302C13.3554 14.0652 12.8468 15.4801 12.8244 16.9016Z" fill="white"/>
<defs>
<filter id="filter0_d" x="0.639941" y="5.43994" width="36.72" height="36.72" filterUnits="userSpaceOnUse" color-interpolation-filters="sRGB">
<feFlood flood-opacity="0" result="BackgroundImageFix"/>
<feColorMatrix in="SourceAlpha" type="matrix" values="0 0 0 0 0 0 0 0 0 0 0 0 0 0 0 0 0 0 127 0"/>
<feOffset dy="6.8"/>
<feGaussianBlur stdDeviation="3.4"/>
<feColorMatrix type="matrix" values="0 0 0 0 0.898039 0 0 0 0 0.282353 0 0 0 0 0.380392 0 0 0 0.25 0"/>
<feBlend mode="normal" in2="BackgroundImageFix" result="effect1_dropShadow"/>
<feBlend mode="normal" in="SourceGraphic" in2="effect1_dropShadow" result="shape"/>
</filter>
</defs>
</svg>
