<svg width="13" height="15" viewBox="0 0 13 15" fill="none" xmlns="http://www.w3.org/2000/svg">
<path d="M7.47241 14.6256H5.50741C5.00937 14.6256 4.60339 14.2196 4.60339 13.7216V3.73354C4.60339 3.2355 5.00849 2.8304 5.50741 2.8304H7.47241C7.97045 2.8304 8.37555 3.2355 8.37555 3.73354V13.7216C8.37555 14.2196 7.97045 14.6256 7.47241 14.6256ZM5.91865 13.3104H7.06029V4.14566H5.91865V13.3104Z" fill="#F1C644"/>
<path d="M2.86901 14.6256H0.90402C0.405976 14.6256 0 14.2196 0 13.7216V7.67931C0 7.18127 0.405099 6.77617 0.90402 6.77617H2.86901C3.36706 6.77617 3.77216 7.18127 3.77216 7.67931V13.7216C3.77216 14.2196 3.36706 14.6256 2.86901 14.6256ZM1.31526 13.3104H2.4569V8.09143H1.31526V13.3104Z" fill="#F1C644"/>
<path d="M12.0978 14.6256H10.1337C9.63563 14.6256 9.23053 14.2197 9.23053 13.7216V1.27753C9.23053 0.779489 9.63563 0.37439 10.1337 0.37439H12.0978C12.595 0.37439 13.0001 0.779489 13.0001 1.27753V13.7216C13.0009 14.2197 12.5958 14.6256 12.0978 14.6256ZM10.5458 13.3104H11.6857V1.68965H10.5458V13.3104Z" fill="#F1C644"/>
</svg>
