<svg xmlns="http://www.w3.org/2000/svg" xmlns:xlink="http://www.w3.org/1999/xlink" width="1328" height="610" viewBox="0 0 1328 610">
  <defs>
    <clipPath id="clip-path">
      <rect id="Rectangle_61" data-name="Rectangle 61" width="1328" height="610" transform="translate(-9939 6557)" fill="#fff" stroke="#fff" stroke-width="1"/>
    </clipPath>
    <clipPath id="clip-path-2">
      <path id="Subtraction_6" data-name="Subtraction 6" d="M157.917,315.834a159.079,159.079,0,0,1-31.826-3.208,157.052,157.052,0,0,1-56.467-23.761A158.379,158.379,0,0,1,12.41,219.386a157.12,157.12,0,0,1-9.2-29.643,159.455,159.455,0,0,1,0-63.651A157.052,157.052,0,0,1,26.97,69.624,158.378,158.378,0,0,1,96.449,12.41a157.116,157.116,0,0,1,29.643-9.2A159.078,159.078,0,0,1,157.917,0,157.411,157.411,0,0,1,212.08,9.533a157.98,157.98,0,0,0,18.882,288.428,157.23,157.23,0,0,1-73.045,17.873Z" transform="translate(-9220 6050)" fill="#fff" stroke="#707070" stroke-width="1"/>
    </clipPath>
    <linearGradient id="linear-gradient" x1="0.863" y1="0.527" x2="0.347" y2="0.53" gradientUnits="objectBoundingBox">
      <stop offset="0" stop-color="#fff"/>
      <stop offset="0.23" stop-color="#fff" stop-opacity="0.843"/>
      <stop offset="0.65" stop-color="#fff" stop-opacity="0.592"/>
      <stop offset="1" stop-color="#fff" stop-opacity="0"/>
    </linearGradient>
  </defs>
  <g id="Mask_Group_10" data-name="Mask Group 10" transform="translate(9939 -6557)" clip-path="url(#clip-path)">
    <g id="Group_261" data-name="Group 261" transform="translate(-10149 6226)">
      <path id="Path_1378" data-name="Path 1378" d="M4.533,59.345h85.6c26.621,0,47.1-18.43,47.1-45.666,0-28.874-18.225-45.051-45.666-45.051H59.618c-5.529,0-9.42-2.253-9.42-7.577,0-5.119,3.891-7.167,9.42-7.167h73.106V-84H47.946C25.01-84,2.28-71.918,2.28-38.744,2.28-9.87,21.734,6.512,45.693,6.512H79.687c6.553,0,9.625,2.867,9.625,7.372,0,4.71-3.072,7.577-9.42,7.577H5.147ZM241.667-64.546H152.588V59.345h41.98V13.884h49.352c20.887,0,39.113-16.587,39.113-39.727C283.032-52.669,261.53-64.546,241.667-64.546Zm-24.8,45.671-22.3-.21V-31.577l22.3.21a5.8,5.8,0,0,1,6.143,6.143A6.341,6.341,0,0,1,216.863-18.875Zm139.48,80.269A64.017,64.017,0,0,0,420.234-2.7a63.973,63.973,0,0,0-63.891-63.891A64.017,64.017,0,0,0,292.247-2.7,64.061,64.061,0,0,0,356.343,61.393Zm0-41.57a22.55,22.55,0,0,1-22.73-22.73,22.506,22.506,0,0,1,22.73-22.526A22.461,22.461,0,0,1,378.869-2.907,22.506,22.506,0,0,1,356.343,19.823ZM566.037-25.843c0-26.826-21.5-38.7-41.365-38.7H435.593V59.345h41.98V13.68h19.045L521.4,59.345h44.232l-27.236-47.3A38.961,38.961,0,0,0,566.037-25.843Zm-88.465-5.734,18.949.077a5.8,5.8,0,0,1,6.143,6.143,6.341,6.341,0,0,1-6.143,6.348l-18.949-.077ZM615.594,59.345h41.98V-31.372h41.365V-64.546H574.228v33.174h41.365Z" transform="translate(452.543 588.433)" fill="#d9d7eb"/>
      <text id="Inference" transform="translate(883.442 738.361)" fill="#d9d7eb" font-size="85" font-family="Poppins-Medium, Poppins" font-weight="500" letter-spacing="-0.034em"><tspan x="0" y="0">INFERENCE</tspan></text>
    </g>
    <g id="Mask_Group_9" data-name="Mask Group 9" transform="translate(-649 610)" clip-path="url(#clip-path-2)">
      <path id="Path_1610" data-name="Path 1610" d="M90.478,200.809a146.3,146.3,0,0,1,.838-26.569c.54-4.392,1.282-8.751,2.2-13.079.9-4.214,2.008-8.379,3.27-12.5a142.515,142.515,0,0,1,10.278-24.72c2.077-3.939,4.374-7.769,6.811-11.495,2.531-3.869,5.28-7.588,8.161-11.2q4.128-5.178,8.722-9.953c3.141-3.278,6.469-6.375,9.917-9.327,3.505-3,7.168-5.822,10.931-8.493,3.74-2.655,7.622-5.108,11.6-7.392a147.051,147.051,0,0,1,24.962-11.353,138.94,138.94,0,0,1,26.319-6.291q6.575-.923,13.21-1.258c2.064-.1,4.131-.149,6.2-.163h.293c.878,0,1.757.021,2.635.028,1.218.011,2.434.047,3.651.092a147.142,147.142,0,0,1,26.147,3.4A140.62,140.62,0,0,1,292.039,58.8q6.184,2.666,12.1,5.892c3.877,2.114,7.64,4.429,11.3,6.892a147.483,147.483,0,0,1,20.218,16.447q4.5,4.361,8.607,9.108c.557.083,1.115.166,1.671.254a.961.961,0,0,1,.229,1.757.853.853,0,0,1-.135.063q3.5,4.19,6.7,8.618a143.488,143.488,0,0,1,22.682,48.6,145.357,145.357,0,0,1,4.1,26.3c.057.881.1,1.762.145,2.644a1.272,1.272,0,0,1,.432-.075,1.4,1.4,0,0,1,.366.047,1.3,1.3,0,0,1,.312,2.385c-.337.188-.671.382-1.005.574a142.7,142.7,0,0,1-7.128,48.234q-1.016,3.077-2.175,6.1-.68,1.846-1.406,3.674c-.759,1.922-1.555,3.833-2.4,5.721-.977,2.193-2.024,4.356-3.1,6.5-2.023,4.048-4.3,7.971-6.717,11.8q-2.668,4.233-5.64,8.267a2.043,2.043,0,0,1,.517,1.352,1.987,1.987,0,0,1-.6,1.439c-.462.409-.946.8-1.379,1.24-.154.158-.31.315-.466.47l-.323.269q-.323.271-.655.528c-.838.663-1.7,1.3-2.567,1.924-.084.069-.173.135-.267.2l-.221.152q-2.372,2.819-4.884,5.518c-3.115,3.343-6.412,6.509-9.838,9.53-3.28,2.892-6.717,5.6-10.24,8.189-3.555,2.61-7.243,5.04-11.022,7.311A144.352,144.352,0,0,1,284.24,328.6a141.951,141.951,0,0,1-26.3,6.746q-6.6,1.045-13.268,1.495c-4.508.307-9.035.36-13.551.234-4.415-.123-8.818-.478-13.2-1q-2.68-.318-5.349-.732a1.089,1.089,0,0,1-.736.264c-.795-.068-1.59-.145-2.381-.251a20.95,20.95,0,0,1-2.387-.477c-.868-.22-1.718-.5-2.573-.767-.526-.164-1.043-.356-1.563-.542-.1-.037-.2-.076-.307-.114a145.024,145.024,0,0,1-23.383-7.483A143.233,143.233,0,0,1,154.9,313.029c-3.714-2.464-7.294-5.125-10.775-7.907-3.557-2.842-6.956-5.877-10.224-9.047a146.122,146.122,0,0,1-17.535-20.6,143.693,143.693,0,0,1-21.933-48.528,146.176,146.176,0,0,1-3.51-20.523,1.37,1.37,0,0,1-.176-1.912Q90.591,202.66,90.478,200.809ZM106.162,138.1a146.061,146.061,0,0,0-6.061,17.456,139.213,139.213,0,0,0-3.663,17.991q-.614,4.723-.942,9.476c-.215,3.18-.3,6.366-.295,9.552s.126,6.4.352,9.585q1.868-.9,3.682-1.9c.47-.261.924-.557,1.379-.845q.72-.458,1.43-.927c.527-.349,1.06-.693,1.574-1.062q.689-.5,1.366-1.009.783-.623,1.551-1.262c.538-.449,1.056-.922,1.574-1.394.484-.439.956-.891,1.424-1.347.5-.487,1.006-.975,1.487-1.483q1.534-1.619,3-3.3c.7-.808,1.381-1.639,2.052-2.474a133.231,133.231,0,0,1-6.223-20.764,107.822,107.822,0,0,1-2.252-18.834q-.145-4.615.126-9.226.063-1.051.156-2.1Q106.994,136.154,106.162,138.1Zm74.739-75a143.619,143.619,0,0,0-16.014,8.04,141.555,141.555,0,0,0-14.7,9.9,141.5,141.5,0,0,0-35.74,40.559q-2,3.409-3.8,6.93-.125.807-.237,1.616a92.8,92.8,0,0,0-.748,12.324,97.739,97.739,0,0,0,.877,12.29,122.445,122.445,0,0,0,3.525,16.791c1.089,3.825,2.364,7.594,3.789,11.306q.791-1.043,1.565-2.1c.986-1.356,1.972-2.711,2.927-4.088.928-1.339,1.857-2.682,2.725-4.061.908-1.443,1.809-2.887,2.677-4.355,1.707-2.886,3.392-5.784,5.006-8.723.4-.723.8-1.443,1.191-2.173q.647-1.222,1.294-2.446c.41-.775.787-1.568,1.18-2.35.361-.719.7-1.451,1.047-2.176,1.205-2.512,2.311-5.07,3.406-7.631q1.915-4.66,3.733-9.358c.6-1.548,1.159-3.113,1.726-4.673q.8-2.205,1.565-4.425c1.093-3.183,2.177-6.367,3.312-9.536,1.141-3.185,2.37-6.338,3.711-9.444.35-.812.7-1.62,1.069-2.423s.752-1.616,1.136-2.421c.72-1.511,1.48-3,2.248-4.487.745-1.442,1.561-2.849,2.361-4.26.412-.727.851-1.44,1.276-2.159.449-.758.925-1.5,1.386-2.25.443-.718.922-1.416,1.382-2.122.18-.276.38-.54.572-.807.215-.3.427-.6.65-.9,1.067-1.413,2.145-2.816,3.21-4.231.5-.66.977-1.331,1.485-1.981l.919-1.175c.254-.324.533-.629.8-.942,1.089-1.268,2.291-2.438,3.478-3.615.582-.577,1.18-1.139,1.773-1.7.533-.509,1.066-1.018,1.61-1.515,1.269-1.157,2.552-2.3,3.915-3.341s2.716-2.04,4.141-2.969c1.366-.891,2.737-1.779,4.152-2.591q1.237-.711,2.5-1.38A146.792,146.792,0,0,0,180.9,63.1ZM335.648,93.316a141.463,141.463,0,0,0-13.573-11.981,148.607,148.607,0,0,0-14.476-9.8A143.92,143.92,0,0,0,291,63.112a150.774,150.774,0,0,0-17.734-6.157,141.125,141.125,0,0,0-18.416-3.775,152.181,152.181,0,0,0-18.974-1.241c-.662,0-1.323.017-1.984.035-.862.024-1.726.037-2.589.065-1.548.049-3.1.133-4.641.231-3.188.2-6.367.529-9.534.942q-6.477.9-12.847,2.373l-.167.084c-.7.346-1.393.688-2.084,1.045-.775.4-1.55.8-2.317,1.217s-1.519.838-2.276,1.266c-1.435.811-2.833,1.683-4.224,2.566-.925.587-1.82,1.224-2.718,1.85-.844.587-1.669,1.2-2.5,1.814-1.186.922-2.37,1.853-3.477,2.871-1.209,1.111-2.4,2.242-3.551,3.41q-1.8,1.822-3.558,3.688c-.525.56-1.053,1.122-1.546,1.71q-.465.558-.932,1.114c-.281.336-.539.693-.807,1.039l-.063.082q-1.7,2.289-3.452,4.543c-.468.614-.94,1.225-1.391,1.851-.231.321-.478.636-.7.967l-.814,1.243c-.9,1.379-1.766,2.785-2.608,4.2q-1.3,2.193-2.525,4.432c-.815,1.488-1.58,3-2.332,4.522-.484.979-.96,1.961-1.418,2.952-.517,1.12-1.013,2.247-1.5,3.377q-.961,2.316-1.89,4.643c-.615,1.544-1.177,3.11-1.75,4.67-1.151,3.136-2.238,6.295-3.34,9.447-.545,1.558-1.121,3.1-1.691,4.653q-.828,2.247-1.7,4.477c-1.213,3.111-2.44,6.22-3.75,9.292-.676,1.586-1.347,3.177-2.074,4.741s-1.451,3.094-2.194,4.635c-.381.789-.792,1.565-1.188,2.346s-.821,1.541-1.232,2.31c-.729,1.365-1.494,2.711-2.258,4.056q-2.581,4.547-5.292,9.015c-1.694,2.808-3.546,5.521-5.451,8.188q-1.49,2.086-3.016,4.144c-.467.631-.951,1.249-1.431,1.87.132.322.262.645.4.966a156.224,156.224,0,0,0,9.216,18.245c1.723,2.932,3.556,5.8,5.456,8.617.237-.364.471-.731.712-1.093,1.861-2.806,3.766-5.578,5.74-8.306,2.164-2.991,4.412-5.925,6.7-8.82,4.452-5.622,9.152-11.039,14.04-16.284,5.018-5.386,10.294-10.539,15.754-15.475q4.1-3.7,8.3-7.283c2.782-2.357,5.618-4.645,8.474-6.91,5.684-4.508,11.606-8.721,17.632-12.76,2.988-2,5.994-3.975,9.044-5.881s6.117-3.742,9.218-5.544q9.129-5.3,18.7-9.773c3.317-1.551,6.672-3.023,10.042-4.452s6.8-2.793,10.24-4.073a203.5,203.5,0,0,1,20.4-6.4c3.4-.872,6.829-1.625,10.275-2.291,3.579-.692,7.188-1.226,10.806-1.672,2.883-.357,5.789-.667,8.694-.761.7-.023,1.4-.08,2.1-.112q1.264-.061,2.53-.089c.661-.016,1.323-.022,1.984-.022.838,0,1.675.009,2.513.018,2.909.029,5.821.178,8.718.439.62.056,1.239.122,1.857.193Q337.148,94.83,335.648,93.316Zm39.517,80.348a140.774,140.774,0,0,0-18.036-52.4,141.612,141.612,0,0,0-10.039-14.91q-3.072-3.951-6.408-7.681a115.212,115.212,0,0,0-12.655-.349c-1.212.03-2.424.105-3.633.172-1.272.07-2.543.162-3.812.263-1.173.094-2.337.236-3.507.364-1.186.13-2.371.278-3.554.433a186,186,0,0,0-26.273,5.657,227.694,227.694,0,0,0-25.141,8.923q-1.968.835-3.922,1.7c-1.354.6-2.692,1.235-4.032,1.866-2.738,1.291-5.448,2.642-8.138,4.031q-7.6,3.925-14.995,8.231c-5.13,3-10.142,6.21-15.059,9.548-4.68,3.178-9.227,6.547-13.711,10-1.106.859-2.2,1.736-3.3,2.6q-1.786,1.4-3.546,2.827-3.52,2.876-6.963,5.846-7.023,6.071-13.624,12.6a271.283,271.283,0,0,0-23.786,26.66Q143.993,209.2,137.861,219q1.294,1.746,2.618,3.467a183.915,183.915,0,0,0,13.85,15.846l.4-.467c.136-.158.289-.3.433-.454l.92-.96c.83-.867,1.7-1.694,2.559-2.537.826-.81,1.664-1.61,2.53-2.376.99-.875,2-1.736,3.054-2.527q.842-.632,1.686-1.262c.556-.415,1.142-.8,1.712-1.192.968-.673,1.97-1.3,2.97-1.927.466-.29.929-.584,1.4-.862.562-.331,1.115-.688,1.691-.991l1.968-1.038c.51-.269,1.033-.512,1.552-.762.454-.219.905-.434,1.368-.634.71-.306,1.417-.635,2.138-.917,1.167-.457,2.331-.919,3.512-1.339.556-.2,1.109-.415,1.671-.6l2.229-.713c1.176-.376,2.367-.7,3.553-1.048,1.067-.31,2.146-.593,3.223-.862,1.335-.335,2.671-.665,4.014-.971,1.264-.29,2.535-.537,3.807-.79.572-.113,1.153-.19,1.728-.285.622-.1,1.242-.2,1.867-.282,1.381-.184,2.761-.358,4.146-.509,2.439-.265,4.885-.472,7.33-.677s4.9-.361,7.357-.508c2.616-.155,5.232-.317,7.848-.469,4.783-.277,9.568-.5,14.351-.764q3.832-.212,7.664-.4c2.6-.133,5.194-.283,7.791-.425,5.015-.274,10.036-.406,15.054-.61,2.553-.1,5.1-.293,7.652-.465q3.739-.251,7.482-.439c3.941-.2,7.887-.295,11.821-.6,3.96-.308,7.905-.8,11.842-1.32,1.2-.181,2.392-.356,3.583-.564,1.357-.238,2.709-.491,4.062-.75q3.562-.684,7.11-1.428c2.43-.505,4.853-1.041,7.251-1.687,2.458-.663,4.9-1.372,7.355-2.05,2.012-.556,4.018-1.12,6.012-1.735,2.1-.648,4.2-1.327,6.294-2q3.067-.976,6.12-2c.974-.328,1.95-.655,2.913-1.012.517-.191,1.041-.368,1.551-.576l1.393-.562,1.223-.553c.392-.177.77-.385,1.154-.58.831-.423,1.624-.919,2.415-1.412q.62-.386,1.233-.786C376.162,182.962,375.768,178.3,375.165,173.664Zm-17.353,88.559a143.486,143.486,0,0,0,8.212-16.329q.836-2,1.615-4.019,2.038-5.565,3.626-11.285a144.432,144.432,0,0,0,3.875-18.974,149.632,149.632,0,0,0,1.262-18.874q0-1.2-.013-2.406c-.649.4-1.3.784-1.966,1.156a46.346,46.346,0,0,1-6.707,2.876c-1.248.457-2.515.866-3.774,1.288-1.106.372-2.216.735-3.326,1.1q-3.509,1.147-7.023,2.274c-2.3.743-4.632,1.4-6.962,2.053-2.451.686-4.893,1.406-7.343,2.094-2.389.671-4.8,1.238-7.228,1.77q-3.54.775-7.09,1.5-2.024.412-4.05.793c-1.19.222-2.384.407-3.578.6s-2.415.351-3.624.5q-2.078.265-4.156.517-3.817.459-7.651.717c-2.47.167-4.943.277-7.415.417-2.495.141-4.986.315-7.478.5-2.465.183-4.927.389-7.394.545-2.639.168-5.279.287-7.921.4-2.48.108-4.957.235-7.436.37-2.345.128-4.685.314-7.029.449-2.483.144-4.966.279-7.448.431-5.156.314-10.313.61-15.469.923-2.132.13-4.264.275-6.395.417-1.992.133-3.986.243-5.976.4q-6.6.505-13.166,1.26c-.94.129-1.881.25-2.816.412l-2.2.379c-.557.1-1.109.227-1.662.341-2.23.462-4.451,1-6.646,1.609-2.333.646-4.664,1.3-6.968,2.044-.555.181-1.119.345-1.669.543l-2.019.727c-1,.361-1.99.763-2.981,1.157l-1.87.814c-.3.131-.591.287-.885.43l-1.23.6c-.7.342-1.38.732-2.068,1.1s-1.366.79-2.044,1.192c-1.34.793-2.64,1.656-3.945,2.508-1.235.806-2.418,1.689-3.6,2.568l-1.376,1.1c-.461.37-.9.776-1.342,1.165-.877.765-1.712,1.58-2.549,2.389-1.377,1.332-2.774,2.656-4.057,4.081q4.053,4.006,8.329,7.773c3.056,2.687,6.155,5.333,9.369,7.833l1.114.858q2.513,1.933,5.079,3.793c1.648,1.194,3.333,2.334,5.016,3.477q5.738,3.9,11.725,7.419a212.517,212.517,0,0,0,24.5,12.292,193.27,193.27,0,0,0,21.4,7.5,165.077,165.077,0,0,0,22.857,4.794,138.766,138.766,0,0,0,35.875.291,106.586,106.586,0,0,0,26.172-6.962q1.853-.795,3.674-1.66c.8-.382,1.593-.779,2.382-1.184.362-.186.722-.377,1.082-.568.23-.122.461-.231.7-.334l-.213.09c.968-.508,1.917-1.052,2.87-1.59.493-.279.981-.567,1.468-.858a3.168,3.168,0,0,1,.284-.145l.389-.245q.388-.246.774-.5a2.076,2.076,0,0,1,.494-.233l.252-.167a1.59,1.59,0,0,1,.158-.093c.043-.031.087-.062.133-.091l.414-.284c.037-.025.075-.048.114-.07q.663-.455,1.32-.921,1.662-2,3.26-4.047A143.475,143.475,0,0,0,357.812,262.223ZM254.607,331.346a144.523,144.523,0,0,0,17.41-3.509,142.768,142.768,0,0,0,18.176-6.212,146.4,146.4,0,0,0,16.461-8.255,141.6,141.6,0,0,0,14.723-9.905,152.954,152.954,0,0,0,11.6-9.987c-2.432,1.139-4.918,2.168-7.428,3.111a96.043,96.043,0,0,1-10.172,3.136,106.291,106.291,0,0,1-10.828,2.13,134.354,134.354,0,0,1-23.2,1.308,153.081,153.081,0,0,1-22.4-2.421c-3.445-.611-6.861-1.376-10.258-2.211q-5.311-1.306-10.534-2.938a192.646,192.646,0,0,1-20.577-7.813c-3.285-1.454-6.515-3.028-9.714-4.665s-6.308-3.4-9.406-5.2c-1.638-.95-3.25-1.95-4.86-2.947q-2.357-1.46-4.666-2.993c-1.441-.952-2.864-1.933-4.279-2.922q-1.065-.743-2.117-1.5c-.624-.447-1.235-.909-1.843-1.378l.1.081a221.465,221.465,0,0,1-17.63-14.353c-2.756-2.5-5.415-5.106-8.026-7.751-.156-.158-.308-.319-.463-.477q-.2.3-.39.615c-.268.438-.508.893-.756,1.343-.335.607-.626,1.235-.926,1.859-.2.483-.407.965-.567,1.462q-.206.639-.412,1.28c-.113.351-.179.722-.267,1.079-.331,1.348-.546,2.72-.768,4.089-.168,1.276-.331,2.553-.382,3.841-.031.779-.06,1.557-.066,2.337-.007.85-.006,1.7,0,2.551q.008,2.3.088,4.588c.026.743.083,1.486.132,2.228.043.676.133,1.35.211,2.024q.134.857.269,1.713c.095.611.237,1.218.355,1.825.055.28.129.557.193.834s.126.582.2.87c.157.584.306,1.17.476,1.751.38,1.292.775,2.576,1.2,3.853.211.642.435,1.277.659,1.914.182.517.394,1.023.6,1.531.231.494.444,1,.7,1.481.3.549.582,1.108.9,1.647q1.055,1.811,2.125,3.613c.593,1,1.194,1.995,1.823,2.971.334.519.655,1.05,1.013,1.553l1.242,1.743c.481.61.951,1.231,1.455,1.821q.951,1.115,1.9,2.229,2.056,2.407,4.024,4.882c.5.628.992,1.264,1.517,1.871.334.384.652.788,1,1.156q.6.636,1.206,1.271c.349.367.728.709,1.091,1.062.309.3.627.591.945.882.723.659,1.464,1.291,2.211,1.923l1.147.882c.452.347.941.655,1.409.979s.982.631,1.472.945c.524.337,1.062.656,1.6.976,2.081,1.244,4.165,2.49,6.324,3.593.218.112.437.221.655.332q4.331,1.487,8.755,2.7a140.492,140.492,0,0,0,17.693,3.611A146.619,146.619,0,0,0,254.607,331.346ZM136.421,291.3a144.87,144.87,0,0,0,13.707,12.092,148.693,148.693,0,0,0,14.7,9.928q5.529,3.27,11.339,6.011-.607-.489-1.2-.993a48.62,48.62,0,0,1-5.264-5.2c-1.58-1.814-3.009-3.753-4.585-5.57l-2.626-3.029c-.315-.363-.628-.726-.932-1.1-.482-.595-.995-1.176-1.446-1.8l-1.21-1.664c-.352-.485-.673-.99-1-1.49q-.949-1.442-1.846-2.916-1.04-1.7-2.072-3.408c-.29-.482-.567-.971-.844-1.46-.339-.6-.642-1.212-.949-1.83-.264-.535-.482-1.092-.714-1.641-.272-.643-.506-1.3-.748-1.954-.4-1.08-.766-2.182-1.109-3.281-.358-1.148-.724-2.294-1.012-3.461s-.557-2.309-.753-3.481c-.112-.67-.237-1.337-.317-2.011-.077-.655-.18-1.311-.228-1.969s-.094-1.3-.142-1.942c-.05-.685-.058-1.375-.088-2.06-.054-1.272-.06-2.55-.081-3.822-.02-1.2-.026-2.392,0-3.588a52.179,52.179,0,0,1,.8-7.533c.1-.574.2-1.142.324-1.709q.112-.508.225-1.015c.071-.321.188-.638.282-.954.072-.244.131-.5.222-.737l.4-1.038c.271-.712.589-1.4.905-2.09.253-.556.554-1.09.839-1.63a18.106,18.106,0,0,1,1.174-1.9q-2.306-2.462-4.524-5c-4.026-4.615-7.858-9.4-11.438-14.37-2.27,3.738-4.415,7.549-6.4,11.444q-2.8,5.475-5.207,11.135-1.306,3.128-2.485,6.306l-.015.034c-1.022,2.739-2,5.5-2.883,8.285a3.5,3.5,0,0,1-.2.5q-.063.2-.126.4a3.449,3.449,0,0,1-.206.513c-.131.432-.251.867-.375,1.3a2.78,2.78,0,0,1-.274.642c-.305.974-.6,1.952-.915,2.923a2.814,2.814,0,0,1-.612,1.068c2.514,4.021,5.233,7.916,8.12,11.677A148.756,148.756,0,0,0,136.421,291.3ZM97.859,219.555c.6,3.059,1.324,6.091,2.133,9.1a139.842,139.842,0,0,0,6.081,17.614q1.777,4.152,3.8,8.191c.967,1.933,1.991,3.836,3.049,5.72.005-.018.009-.037.014-.056.115-.438.237-.873.353-1.31a2.938,2.938,0,0,1,.094-.54l.1-.372a2.151,2.151,0,0,1,.111-.562c.792-2.818,1.666-5.6,2.662-8.356l.007-.026c.057-.156.115-.312.173-.468l.009-.022a165.091,165.091,0,0,1,7.85-17.683c1.537-2.984,3.162-5.924,4.83-8.836q1.626-2.84,3.366-5.621a174.882,174.882,0,0,1-10.043-17.022q-2.809-5.464-5.168-11.146c-.5.6-1,1.209-1.517,1.8-.555.642-1.119,1.272-1.684,1.9-1.091,1.218-2.249,2.38-3.434,3.506s-2.409,2.163-3.678,3.174a51.194,51.194,0,0,1-4.242,2.974c-.639.412-1.288.807-1.941,1.2-.309.184-.632.357-.952.52-.365.186-.728.377-1.1.558q-1.457.72-2.935,1.389.27,2.938.648,5.865C96.844,213.9,97.306,216.733,97.859,219.555Z" transform="translate(-9306.229 6015.673)" fill="#d9d7eb" stroke="#d9d7eb" stroke-width="8"/>
    </g>
    <path id="Subtraction_7" data-name="Subtraction 7" d="M9364.918-4323.825a159.1,159.1,0,0,1-31.826-3.208,157.1,157.1,0,0,1-29.643-9.2,157.943,157.943,0,0,1-26.825-14.56,158.959,158.959,0,0,1-23.371-19.283,159.022,159.022,0,0,1-19.283-23.371,157.989,157.989,0,0,1-14.56-26.825,157.143,157.143,0,0,1-9.2-29.643,159.061,159.061,0,0,1-3.208-31.826,159.061,159.061,0,0,1,3.208-31.826,157.143,157.143,0,0,1,9.2-29.643,157.989,157.989,0,0,1,14.56-26.825,159.084,159.084,0,0,1,19.283-23.371,159.01,159.01,0,0,1,23.371-19.283,157.977,157.977,0,0,1,26.825-14.56,157.1,157.1,0,0,1,29.643-9.2,159.1,159.1,0,0,1,31.826-3.208,158.555,158.555,0,0,1,38.628,4.758,157.069,157.069,0,0,1,35.156,13.5,157.79,157.79,0,0,0-83.5,139.316,157.7,157.7,0,0,0,84.134,139.656,157.094,157.094,0,0,1-35.436,13.752A158.549,158.549,0,0,1,9364.918-4323.825Z" transform="translate(-18837.668 11781.455) rotate(-3)" opacity="0.73" fill="url(#linear-gradient)"/>
  </g>
</svg>
