<svg width="107" height="175" viewBox="0 0 107 175" fill="none" xmlns="http://www.w3.org/2000/svg">
<path d="M59.5493 71.0387H48.6863V170.279H59.5493V71.0387Z" fill="url(#paint0_linear)"/>
<path d="M71.3985 174.722H37.3291L49.4277 167.069H58.561L71.3985 174.722Z" fill="url(#paint1_linear)"/>
<path d="M0.793457 20.1853C0.793457 20.1853 46.7167 -25.2316 106.207 20.1853V59.4319C106.207 59.4319 59.5494 87.5755 0.795878 59.4319L0.793457 20.1853Z" fill="url(#paint2_linear)"/>
<path d="M4.12695 21.1835C4.12695 21.1835 47.1407 -21.3675 102.873 21.1835V57.9541C102.873 57.9541 59.1666 84.3171 4.12695 57.9541V21.1835Z" fill="url(#paint3_linear)"/>
<path d="M66.4588 42.8975H40.292V65.1154H66.4588V42.8975Z" fill="url(#paint4_linear)"/>
<path d="M64.2371 44.7823H42.5134V63.2282H64.2371V44.7823Z" fill="url(#paint5_linear)"/>
<g opacity="0.1">
<path opacity="0.1" d="M62.534 98.9765L54.2801 84.7557L46.959 98.4774L40.6068 84.0967L33.9979 98.7391L33.7678 98.647C36.4326 90.8656 33.7896 68.8075 33.7678 68.5847L33.666 67.7585L40.6141 83.4887L46.4066 70.6487L54.2874 84.2324L61.4947 70.7045L67.5997 84.637L73.5255 68.7034L75.0081 68.4078L74.9742 68.5871C74.9306 68.8148 70.8824 90.1485 73.1839 97.3824L73.7314 98.6325L73.5134 98.7463C73.2766 98.3426 73.088 97.9125 72.9513 97.4648L67.6215 85.2959L62.534 98.9765ZM54.4158 84.4916L62.4831 98.3999L67.4762 84.9761L61.4729 71.2762L54.4158 84.4916ZM40.7328 83.7866L46.959 97.913L54.1251 84.4965L46.4187 71.189L40.7328 83.7866ZM34.09 69.3575C34.5115 73.1562 36.1516 89.3611 34.417 97.1813L40.4736 83.7866L34.09 69.3575ZM67.7451 84.9713L72.6073 96.0669C71.1295 88.1692 74.3031 70.845 74.7004 68.7276L73.7144 68.9238L67.7451 84.9713Z" fill="url(#paint6_linear)"/>
</g>
<g opacity="0.1">
<path opacity="0.1" d="M41.0285 99.0079L34.9041 83.6751L35.1342 83.5831L41.0406 98.3611L46.959 84.855L39.0685 70.358L39.2842 70.2393L47.0826 84.5691L52.9962 71.0799H53.0689L70.6281 69.4204L54.3626 98.4507L47.1117 85.1263L41.0285 99.0079ZM47.2376 84.8428L54.365 97.9395L70.1872 69.7039L53.1707 71.3125L47.2376 84.8428Z" fill="url(#paint7_linear)"/>
</g>
<g opacity="0.1">
<path opacity="0.1" d="M67.2169 98.2472L67.0909 98.0049L52.5261 69.8613L52.7466 69.7474L67.1854 97.6464L72.6121 83.5855L72.8423 83.6751L67.2169 98.2472Z" fill="url(#paint8_linear)"/>
</g>
<path d="M53.8708 64.8682C42.2809 64.8682 32.8884 66.4162 32.8884 68.3252C32.8884 70.2343 42.2834 71.7823 53.8708 71.7823C65.4582 71.7823 74.8531 70.2343 74.8531 68.3252C74.8531 66.4162 65.4582 64.8682 53.8708 64.8682ZM53.8708 70.2997C43.2355 70.2997 34.6158 69.304 34.6158 68.0781C34.6158 66.8523 43.2355 65.859 53.8708 65.859C64.5061 65.859 73.1234 66.8499 73.1234 68.0781C73.1234 69.3064 64.5037 70.2997 53.8708 70.2997Z" fill="url(#paint9_linear)"/>
<g opacity="0.2">
<path opacity="0.2" d="M53.8708 64.8682C42.2809 64.8682 32.8884 66.4162 32.8884 68.3252C32.8884 70.2343 42.2834 71.7823 53.8708 71.7823C65.4582 71.7823 74.8531 70.2343 74.8531 68.3252C74.8531 66.4162 65.4582 64.8682 53.8708 64.8682ZM53.8708 70.2997C43.2355 70.2997 34.6158 69.304 34.6158 68.0781C34.6158 66.8523 43.2355 65.859 53.8708 65.859C64.5061 65.859 73.1234 66.8499 73.1234 68.0781C73.1234 69.3064 64.5037 70.2997 53.8708 70.2997Z" fill="url(#paint10_linear)"/>
</g>
<path d="M53.8708 64.1293C42.2809 64.1293 32.8884 65.6773 32.8884 67.5864C32.8884 69.4954 42.2834 71.0434 53.8708 71.0434C65.4582 71.0434 74.8531 69.4954 74.8531 67.5864C74.8531 65.6773 65.4582 64.1293 53.8708 64.1293ZM53.8708 69.5608C43.2355 69.5608 34.6158 68.5651 34.6158 67.3393C34.6158 66.1134 43.2379 65.1177 53.8708 65.1177C64.5037 65.1177 73.1234 66.1013 73.1234 67.3368C73.1234 68.5724 64.5037 69.5584 53.8708 69.5584V69.5608Z" fill="url(#paint11_linear)"/>
<path d="M59.4354 71.3439H48.7759V168.733H59.4354V71.3439Z" fill="#E8EAF1"/>
<path d="M71.0641 173.094H37.6318L49.5027 165.584H58.4664L71.0641 173.094Z" fill="#E8EAF1"/>
<path d="M1.77686 21.4378C1.77686 21.4378 46.8377 -23.1385 105.223 21.4378V59.9575C105.223 59.9575 59.4353 87.5755 1.77686 59.9575V21.4378Z" fill="#E2E4ED"/>
<path d="M5.04761 22.419C5.04761 22.419 47.2594 -19.3398 101.953 22.419V58.5015C101.953 58.5015 59.0722 84.3728 5.04761 58.5015V22.419Z" fill="#F3F5F7"/>
<path d="M66.2189 43.7258H40.5391V65.5295H66.2189V43.7258Z" fill="white"/>
<path d="M64.0386 45.5768H42.7195V63.6786H64.0386V45.5768Z" fill="#F3F5F7"/>
<path opacity="0.3" d="M62.3668 98.7608L54.2655 84.7968L47.0679 98.269L40.8345 84.1572L34.3613 98.5282L34.1359 98.4386C36.7621 90.8 34.1578 69.1539 34.1359 68.9358L34.0366 68.1243L40.8563 83.5612L46.5422 70.9636L54.2752 84.288L61.3663 71.012L67.3574 84.6853L73.1717 69.0473L74.6253 68.7566L74.5914 68.9334C74.5478 69.1587 70.5747 90.0926 72.835 97.1934L73.3728 98.4192L73.1572 98.5306C72.9246 98.1345 72.7392 97.7125 72.6048 97.2733L67.3719 85.3298L62.3668 98.7608ZM54.4012 84.5448L62.3183 98.1939L67.2169 85.0221L61.3275 71.5765L54.4012 84.5448ZM40.9702 83.8616L47.0897 97.7191L54.1153 84.5521L46.5446 71.499L40.9702 83.8616ZM34.4509 69.7014C34.8652 73.4274 36.4738 89.3247 34.7707 97.0068L40.7037 83.8616L34.4509 69.7014ZM67.4785 85.0148L72.2487 95.8997C70.7951 88.1473 73.9106 71.1477 74.3031 69.0715L73.334 69.2653L67.4785 85.0148Z" fill="black"/>
<path opacity="0.3" d="M41.261 98.7923L35.2505 83.7454L35.4758 83.6557L41.2731 98.1648L47.0874 84.9034L39.335 70.6777L39.5482 70.5614L47.2013 84.6127L53.0156 71.3754H53.0859L70.318 69.7474L54.3456 98.2448L47.2304 85.1626L41.261 98.7923ZM47.3539 84.8913L54.348 97.7433L69.8771 70.0333L53.1779 71.6104L47.3539 84.8913Z" fill="black"/>
<path opacity="0.3" d="M66.9627 98.046L66.8367 97.8062L52.5432 70.1882L52.7588 70.0768L66.9288 97.4549L72.2561 83.6556L72.4814 83.7428L66.9627 98.046Z" fill="black"/>
<path d="M53.8636 65.2872C42.4918 65.2872 33.2712 66.8062 33.2712 68.6789C33.2712 70.5516 42.4918 72.0706 53.8636 72.0706C65.2354 72.0706 74.4559 70.5516 74.4559 68.6789C74.4559 66.8062 65.2354 65.2872 53.8636 65.2872ZM53.8636 70.617C43.4269 70.617 34.9671 69.648 34.9671 68.4366C34.9671 67.2253 43.4269 66.2563 53.8636 66.2563C64.3002 66.2563 72.76 67.2253 72.76 68.4366C72.76 69.648 64.3002 70.617 53.8636 70.617Z" fill="#5F546F"/>
<path opacity="0.2" d="M53.8636 65.2872C42.4918 65.2872 33.2712 66.8062 33.2712 68.6789C33.2712 70.5516 42.4918 72.0706 53.8636 72.0706C65.2354 72.0706 74.4559 70.5516 74.4559 68.6789C74.4559 66.8062 65.2354 65.2872 53.8636 65.2872ZM53.8636 70.617C43.4269 70.617 34.9671 69.648 34.9671 68.4366C34.9671 67.2253 43.4269 66.2563 53.8636 66.2563C64.3002 66.2563 72.76 67.2253 72.76 68.4366C72.76 69.648 64.3002 70.617 53.8636 70.617Z" fill="#534A91"/>
<path d="M53.8636 64.5605C42.4918 64.5605 33.2712 66.0795 33.2712 67.9522C33.2712 69.8249 42.4918 71.3439 53.8636 71.3439C65.2354 71.3439 74.4559 69.8249 74.4559 67.9522C74.4559 66.0795 65.2354 64.5605 53.8636 64.5605ZM53.8636 69.8903C43.4269 69.8903 34.9671 68.9213 34.9671 67.71C34.9671 66.4986 43.4269 65.5296 53.8636 65.5296C64.3002 65.5296 72.76 66.4986 72.76 67.71C72.76 68.9213 64.3002 69.8903 53.8636 69.8903Z" fill="#746CA6"/>
<path opacity="0.1" d="M59.3143 164.978H48.6548V166.19H59.3143V164.978Z" fill="black"/>
<path opacity="0.3" d="M29.9183 7.75735L5.04761 32.8243V38.7597L33.2712 6.67444L29.9183 7.75735Z" fill="white"/>
<path opacity="0.3" d="M38.5016 5.34679L5.04761 47.7234V54.0052L46.8476 4.10156L38.5016 5.34679Z" fill="white"/>
<defs>
<linearGradient id="paint0_linear" x1="54.1178" y1="170.279" x2="54.1178" y2="71.0387" gradientUnits="userSpaceOnUse">
<stop stop-color="#808080" stop-opacity="0.25"/>
<stop offset="0.54" stop-color="#808080" stop-opacity="0.12"/>
<stop offset="1" stop-color="#808080" stop-opacity="0.1"/>
</linearGradient>
<linearGradient id="paint1_linear" x1="9671.81" y1="6172.9" x2="9671.81" y2="5931.14" gradientUnits="userSpaceOnUse">
<stop stop-color="#808080" stop-opacity="0.25"/>
<stop offset="0.54" stop-color="#808080" stop-opacity="0.12"/>
<stop offset="1" stop-color="#808080" stop-opacity="0.1"/>
</linearGradient>
<linearGradient id="paint2_linear" x1="39636.2" y1="30007.7" x2="39636.2" y2="8642.89" gradientUnits="userSpaceOnUse">
<stop stop-color="#616161" stop-opacity="0.25"/>
<stop offset="0.54" stop-color="#696969" stop-opacity="0.12"/>
<stop offset="1" stop-color="#6B6B6B" stop-opacity="0.1"/>
</linearGradient>
<linearGradient id="paint3_linear" x1="37132.7" y1="27482.9" x2="37132.7" y2="8732.47" gradientUnits="userSpaceOnUse">
<stop stop-color="#808080" stop-opacity="0.25"/>
<stop offset="0.54" stop-color="#808080" stop-opacity="0.12"/>
<stop offset="1" stop-color="#808080" stop-opacity="0.1"/>
</linearGradient>
<linearGradient id="paint4_linear" x1="7333.23" y1="7426.57" x2="7333.23" y2="5388.97" gradientUnits="userSpaceOnUse">
<stop stop-color="#808080" stop-opacity="0.25"/>
<stop offset="0.54" stop-color="#808080" stop-opacity="0.12"/>
<stop offset="1" stop-color="#808080" stop-opacity="0.1"/>
</linearGradient>
<linearGradient id="paint5_linear" x1="6097.12" y1="6031.21" x2="6097.12" y2="4626.74" gradientUnits="userSpaceOnUse">
<stop stop-color="#808080" stop-opacity="0.25"/>
<stop offset="0.54" stop-color="#808080" stop-opacity="0.12"/>
<stop offset="1" stop-color="#808080" stop-opacity="0.1"/>
</linearGradient>
<linearGradient id="paint6_linear" x1="15720.1" y1="16572.7" x2="15720.1" y2="12550.3" gradientUnits="userSpaceOnUse">
<stop stop-color="#808080" stop-opacity="0.25"/>
<stop offset="0.54" stop-color="#808080" stop-opacity="0.12"/>
<stop offset="1" stop-color="#808080" stop-opacity="0.1"/>
</linearGradient>
<linearGradient id="paint7_linear" x1="13359.3" y1="15716.2" x2="13359.3" y2="12101.8" gradientUnits="userSpaceOnUse">
<stop stop-color="#808080" stop-opacity="0.25"/>
<stop offset="0.54" stop-color="#808080" stop-opacity="0.12"/>
<stop offset="1" stop-color="#808080" stop-opacity="0.1"/>
</linearGradient>
<linearGradient id="paint8_linear" x1="6495.38" y1="13438.7" x2="6495.38" y2="10086" gradientUnits="userSpaceOnUse">
<stop stop-color="#808080" stop-opacity="0.25"/>
<stop offset="0.54" stop-color="#808080" stop-opacity="0.12"/>
<stop offset="1" stop-color="#808080" stop-opacity="0.1"/>
</linearGradient>
<linearGradient id="paint9_linear" x1="15875.8" y1="2944.21" x2="15875.8" y2="2746.95" gradientUnits="userSpaceOnUse">
<stop stop-color="#808080" stop-opacity="0.25"/>
<stop offset="0.54" stop-color="#808080" stop-opacity="0.12"/>
<stop offset="1" stop-color="#808080" stop-opacity="0.1"/>
</linearGradient>
<linearGradient id="paint10_linear" x1="15875.8" y1="2944.21" x2="15875.8" y2="2746.95" gradientUnits="userSpaceOnUse">
<stop stop-color="#808080" stop-opacity="0.25"/>
<stop offset="0.54" stop-color="#808080" stop-opacity="0.12"/>
<stop offset="1" stop-color="#808080" stop-opacity="0.1"/>
</linearGradient>
<linearGradient id="paint11_linear" x1="15875.8" y1="2922.38" x2="15875.8" y2="2725.12" gradientUnits="userSpaceOnUse">
<stop stop-color="#808080" stop-opacity="0.25"/>
<stop offset="0.54" stop-color="#808080" stop-opacity="0.12"/>
<stop offset="1" stop-color="#808080" stop-opacity="0.1"/>
</linearGradient>
</defs>
</svg>
