<svg width="19" height="27" viewBox="0 0 19 27" fill="none" xmlns="http://www.w3.org/2000/svg">
<path d="M18.4002 23.007V26.0737C18.4002 26.4946 18.0552 26.8404 17.6335 26.8404H15.3335V19.2504C17.0815 19.6023 18.4002 21.1517 18.4002 23.007Z" fill="white" fill-opacity="0.2"/>
<path d="M16.1 8.45565V10.7403C16.1 13.4474 14.536 15.7926 12.2667 16.9204C11.3467 17.3796 10.2964 17.6403 9.20005 17.6403C8.10371 17.6403 7.05338 17.3796 6.13338 16.9204C3.87172 15.8003 2.31538 13.4704 2.30005 10.7794V10.7403V8.45565L4.60005 6.90698C4.60005 6.90698 6.90771 7.67365 9.58338 7.67365C12.259 7.67365 13.8 6.90698 13.8 6.90698L16.1 8.45565Z" fill="white" fill-opacity="0.2"/>
<path d="M13.8001 6.90698L13.7978 6.90851V10.7403C13.7978 13.4474 12.2338 15.7926 9.96449 16.9204C9.37339 17.2156 8.72555 17.4172 8.04858 17.533C8.42502 17.5966 8.80758 17.6403 9.20012 17.6403C10.2965 17.6403 11.3468 17.3796 12.2668 16.9204C14.5361 15.7926 16.1001 13.4482 16.1001 10.7403V8.45565L13.8001 6.90698Z" fill="white" fill-opacity="0.2"/>
<path d="M12.2666 16.9204V19.1736C12.2666 20.4386 10.8943 21.4736 9.19997 21.4736C7.50563 21.4736 6.1333 20.4386 6.1333 19.1736V16.9204C7.0533 17.3796 8.10363 17.6403 9.19997 17.6403C10.2963 17.6403 11.3466 17.3796 12.2666 16.9204Z" fill="white" fill-opacity="0.2"/>
<path d="M6.13332 19.1736C6.13332 20.4386 7.50565 21.4736 9.19998 21.4736C10.8943 21.4736 12.2667 20.4386 12.2667 19.1736H14.5667C14.8273 19.1736 15.088 19.1958 15.3333 19.2502V26.8403H3.06665V19.2502C3.31198 19.1966 3.57265 19.1736 3.83332 19.1736H6.13332Z" fill="white" fill-opacity="0.2"/>
<path d="M16.1 6.14023V8.45557L13.8 6.9069C13.8 6.9069 12.259 7.67357 9.58338 7.67357C6.90771 7.67357 4.60005 6.9069 4.60005 6.9069L2.30005 8.45557V6.14023C2.30005 2.74467 5.04472 0 8.43338 0H13.0334V3.06667C14.7277 3.06667 16.1 4.439 16.1 6.14023Z" fill="white" fill-opacity="0.2"/>
<path d="M16.1001 8.45557V6.14023C16.1001 4.439 14.7277 3.06667 13.0334 3.06667V0H10.7334V3.06667C10.7334 4.33703 11.763 5.36667 13.0334 5.36667C13.4566 5.36667 13.8001 5.71397 13.8001 6.141V6.90767L16.1001 8.45557Z" fill="white" fill-opacity="0.2"/>
<path d="M3.06667 19.2504V26.8404H0.766667C0.345 26.8404 0 26.4946 0 26.0737V23.007C0 21.1517 1.31867 19.6023 3.06667 19.2504Z" fill="white" fill-opacity="0.2"/>
</svg>
