<svg width="260" height="283" viewBox="0 0 260 283" fill="none" xmlns="http://www.w3.org/2000/svg">
<path d="M259.349 143.625C259.407 176.616 246.748 208.36 224.003 232.257C223.849 232.421 223.691 232.585 223.533 232.749C211.53 245.262 197.121 255.221 181.172 262.026C165.223 268.831 148.064 272.342 130.724 272.349C113.384 272.355 96.2213 268.857 80.2673 262.064C64.3132 255.272 49.8967 245.324 37.8836 232.82C37.7258 232.656 37.568 232.492 37.4132 232.328C14.7496 208.487 2.0774 176.871 2.00035 143.977C1.92331 111.082 14.4472 79.4073 36.999 55.4601C37.1505 55.293 37.3082 55.129 37.4658 54.965C49.4789 42.3428 63.9304 32.2921 79.9441 25.4223C95.9578 18.5525 113.2 15.0067 130.625 15C148.05 14.9933 165.295 18.5259 181.314 25.3834C197.333 32.2409 211.792 42.2806 223.815 54.8935C223.972 55.0574 224.13 55.2213 224.282 55.3882C246.832 79.229 259.382 110.809 259.349 143.625Z" fill="#F1F3F7"/>
<path d="M259.349 143.365H2V143.984H259.349V143.365Z" fill="white" stroke="white"/>
<path d="M130.984 15H130.365V272.349H130.984V15Z" fill="white" stroke="white"/>
<path d="M74.394 101.264C68.8778 88.2187 60.8812 76.3681 50.8481 66.3704C46.6982 62.2183 42.2233 58.4043 37.4659 54.965C37.3082 55.129 37.1505 55.293 36.999 55.4601C64.4829 75.295 82.4077 107.593 82.4216 144.002C82.4355 180.257 64.6871 212.451 37.4133 232.328C37.568 232.492 37.7258 232.656 37.8837 232.82C42.508 229.443 46.8625 225.711 50.9076 221.658C66.3444 206.197 76.8233 186.486 81.0066 165.042C85.1899 143.598 82.8877 121.394 74.394 101.264Z" fill="white" stroke="white"/>
<path d="M178.927 143.965C178.913 107.556 196.813 75.2444 224.282 55.3883C224.13 55.2213 223.973 55.0574 223.815 54.8936C209.762 65.0651 198.316 78.4189 190.414 93.8627C182.512 109.307 178.378 126.402 178.351 143.749C178.323 161.097 182.403 178.205 190.256 193.674C198.109 209.143 209.512 222.533 223.533 232.749C223.691 232.585 223.849 232.421 224.003 232.257C196.717 212.4 178.941 180.22 178.927 143.965Z" fill="white" stroke="white"/>
<path d="M229.833 260.849C225.047 260.166 216.201 252.646 216.201 252.646C215.56 251.687 214.683 250.909 213.655 250.385C212.626 249.862 211.481 249.612 210.329 249.658L201.544 237.305C198.139 231.453 194.099 225.994 189.498 221.027C188.746 220.193 187.969 219.384 187.167 218.601C184.798 216.245 182.252 214.074 179.551 212.106C177.775 210.781 176.097 209.328 174.533 207.758C173.087 206.318 171.718 204.803 170.432 203.219L164.32 194.66L163.91 194.079C164.066 193.243 164.107 192.389 164.033 191.542C164.033 191.344 163.992 191.146 163.964 190.947L138.738 161.291L131.218 145.951C131.129 146.026 130.829 146.279 130.357 146.634L130.22 146.244V146.067V144.775C130.182 134.156 132.817 123.699 137.884 114.367C139.585 111.234 140.476 107.725 140.475 104.16C140.475 103.873 140.475 103.586 140.475 103.298L140.345 103.155C140.105 102.888 139.559 102.273 138.854 101.364C138.943 101.186 139.039 101.001 139.128 100.831C142.259 95.0743 146.614 94.0899 146.614 94.0899C161.271 92.039 171.84 82.1604 171.84 82.1604C182.778 76.0077 180.727 70.5386 180.727 70.5386L170.842 46.6797L164.689 34.0666L162.987 28.2694C162.429 24.4134 161.642 20.5942 160.628 16.8322C159.172 11.2811 151.919 9.70186 148.418 14.248C148.336 14.3574 148.248 14.4736 148.166 14.5967C146.616 16.8363 145.957 19.5735 146.319 22.2728C146.681 24.9722 148.036 27.4395 150.121 29.1923C153.539 32.1046 156.513 35.0921 156.513 35.0921C162.665 36.7943 166.767 68.4946 166.767 68.4946L162.665 71.2291C159.52 71.3923 156.442 72.2055 153.626 73.6174C150.811 75.0294 148.318 77.0094 146.306 79.4327H133.44C133.44 79.378 133.474 79.3234 133.495 79.2618L131.362 78.7833L125.209 77.416L122.933 76.9033L122.898 77.0469L122.256 76.9033V76.9921C121.392 75.623 120.615 74.2005 119.931 72.7331C120.115 72.7608 120.302 72.7608 120.485 72.7331C120.533 72.6305 120.574 72.528 120.608 72.4255H120.827C121.777 70.3746 120.957 67.8109 121.873 65.719C122.368 64.8365 122.915 63.9849 123.514 63.169C124.881 60.8105 124.717 57.8572 124.313 55.15C123.876 52.2377 123.206 49.2639 121.531 46.837C119.856 44.4101 116.964 42.6326 114.011 43.0154C111.687 43.3231 109.65 44.9159 107.311 45.0663C105.657 45.1621 104.071 44.5126 102.526 44.0067C100.834 43.4618 99.098 43.0661 97.3372 42.824C96.1682 42.6599 94.7941 42.6394 94.0079 43.5077L93.9395 43.5965C93.8407 43.6722 93.7492 43.7568 93.6661 43.8495C93.3574 44.2349 93.1254 44.6758 92.9825 45.1484L91.4716 49.3117C91.3938 49.4531 91.353 49.6118 91.353 49.7732C91.353 49.9345 91.3938 50.0933 91.4716 50.2346C91.6083 50.4056 91.8476 50.4534 92.0322 50.5696C93.2286 51.3421 91.622 53.2495 92.6133 54.1861C93.2081 54.7466 94.4796 54.8082 95.7375 54.8013C94.5931 56.6048 93.9003 58.6574 93.7177 60.7854C93.535 62.9135 93.868 65.0542 94.6883 67.0262C95.5087 68.9983 96.7922 70.7435 98.4303 72.1142C100.068 73.4848 102.013 74.4405 104.098 74.9002C104.098 75.1258 104.098 75.3514 104.098 75.5839C104.131 77.3867 103.989 79.1885 103.675 80.9641L102.676 81.0529C101.015 81.1418 97.6585 81.2717 94.7257 81.135C93.7437 81.096 92.7646 81.0024 91.7929 80.8547C91.7929 80.8547 91.6767 82.0989 91.4511 84.0063L90.7675 84.1977C84.392 86.0296 78.8553 90.0285 75.1122 95.505L59.7714 104.392C59.7714 104.392 52.935 102.69 33.1848 119.733L18.8694 127.253C18.8694 127.253 -3.00005 133.693 1.08809 140.16C5.17623 146.627 25.6306 132.326 25.6306 132.326L33.8343 128.579L58.7186 117.641C58.7186 117.641 66.9222 112.172 73.034 110.121C79.1457 108.07 85.3052 101.918 85.3052 101.918L86.8434 101.835L87.527 101.794C87.4252 101.978 87.3133 102.156 87.192 102.328C87.1305 102.423 87.0622 102.512 86.9938 102.594V157.47L86.8844 158.994H86.9323L85.2915 181.315C85.2915 181.315 85.6334 191.57 84.2661 197.333C82.8988 203.096 85.2915 226.647 85.2915 226.647C85.2915 226.647 86.1871 226.647 87.6433 226.544L87.6022 227.228L87.0006 236.874C87.0006 236.874 85.8521 240.593 92.4697 242.528C93.9853 242.967 95.4274 243.628 96.7493 244.49L104.379 249.487L112.22 254.273L113.806 257.602L113.881 257.766L112.213 256.747C112.213 256.747 110.846 260.166 115.283 264.589C116.944 266.075 118.24 267.925 119.07 269.994C119.9 272.063 120.242 274.296 120.068 276.518C120.068 276.518 120.752 284.722 124.854 282.671C124.854 282.671 131.328 281.304 131.006 270.058C131.006 270.058 128.422 260.692 131.43 256.734C131.512 256.624 131.599 256.52 131.69 256.419C135.108 252.673 130.664 246.848 130.664 246.848C130.664 246.848 122.768 243.663 122.324 248.954L121.996 248.81C120.574 248.127 118.024 246.466 115.324 242.418C115.324 242.418 110.894 231.173 104.078 230.147L105.22 223.673L105.349 222.928C107.694 221.82 109.595 220.392 110.552 218.553L110.593 218.471V218.436V218.389V218.341V218.293L110.627 218.225V218.17L110.661 218.095L110.702 218.013V217.944L110.75 217.849L110.88 217.78L110.928 217.678L110.969 217.589L111.024 217.473L111.071 217.377L111.126 217.261L111.188 217.138L111.236 217.042L111.304 216.898L111.352 216.803L111.646 216.167L111.687 216.085L111.769 215.907L111.83 215.777L111.919 215.579L111.974 215.463L112.076 215.23L112.117 215.134L112.227 214.895L112.281 214.779L112.391 214.533L112.439 214.424L112.555 214.164L112.603 214.061L112.726 213.788L112.767 213.685L112.89 213.398L112.931 213.302L113.068 212.995V212.94C115.248 207.867 117.99 200.573 117.853 196.252C117.871 195.909 117.871 195.564 117.853 195.22H117.771V195.152C117.771 195.008 117.716 194.872 117.675 194.742L136.079 198.843L147.017 210.773H147.065H147.106H147.154H147.208H147.263L147.332 210.739H147.393L147.482 210.698L147.55 210.664L147.646 210.616L147.728 210.575L147.844 210.513L147.919 210.472L148.049 210.404L148.131 210.356L148.268 210.287L148.364 210.233L148.514 210.151L148.61 210.103L148.767 210.014L148.877 209.953L149.047 209.857L149.164 209.577L149.355 209.467L149.458 209.412L149.656 209.303L149.772 209.235L149.977 209.118L150.087 209.05L150.305 208.92L150.422 208.852L150.647 208.715L150.757 208.647L150.996 208.503H151.037L151.42 208.948L156.205 214.499C160.991 216.55 171.888 226.77 171.888 226.77C173.146 229.785 178.471 234.092 181.192 236.156C181.97 236.732 182.796 237.239 183.66 237.674C185.15 238.446 187.249 240.285 189.17 242.145C191.677 244.622 194.366 246.908 197.216 248.981C199.852 250.991 202.196 253.356 204.183 256.009L204.415 256.31C202.788 261.779 212.099 267.337 212.099 267.337C215.517 266.653 226.073 276.224 226.073 276.224C226.073 276.224 235.958 284.065 240.046 275.541C244.134 267.016 229.833 260.849 229.833 260.849ZM211.771 251.716L210.404 249.781C210.775 249.956 211.094 250.224 211.331 250.56C211.567 250.896 211.711 251.287 211.751 251.695L211.771 251.716Z" fill="url(#paint0_linear)"/>
<path d="M126.761 84.3687C126.761 84.3687 92.2715 104.461 99.6411 93.0713C102.828 88.2743 104.496 82.6281 104.427 76.8692C104.425 74.989 104.172 73.1174 103.675 71.3044L118.072 64.6047C117.823 66.5768 118 68.5795 118.592 70.4772C120.608 77.6007 126.761 84.3687 126.761 84.3687Z" fill="#DB8B8B"/>
<path opacity="0.1" d="M118.571 70.484C117.205 72.9249 115.091 74.8631 112.542 76.0136C109.992 77.1642 107.14 77.4665 104.406 76.876C104.405 74.9958 104.152 73.1243 103.654 71.3112L118.051 64.6116C117.802 66.5837 117.979 68.5863 118.571 70.484Z" fill="black"/>
<path d="M107.175 76.5C114.386 76.5 120.232 70.654 120.232 63.4426C120.232 56.2312 114.386 50.3851 107.175 50.3851C99.9634 50.3851 94.1174 56.2312 94.1174 63.4426C94.1174 70.654 99.9634 76.5 107.175 76.5Z" fill="#DB8B8B"/>
<path opacity="0.1" d="M98.8276 56.4967C100.09 56.7552 101.203 57.4896 101.938 58.5476C102.8 59.9149 102.779 61.7881 103.989 62.8545C104.902 63.5294 106.044 63.8191 107.168 63.6612C108.279 63.4996 109.405 63.4607 110.525 63.545C112.336 63.839 113.82 65.1789 114.825 66.7102C115.739 68.2982 116.551 69.9422 117.258 71.6324C117.548 72.3029 117.96 72.9128 118.475 73.4304C118.735 73.687 119.052 73.8789 119.4 73.9905C119.748 74.1021 120.117 74.1304 120.478 74.073C121.415 72.0221 120.608 69.5337 121.504 67.4896C121.988 66.6237 122.525 65.7882 123.11 64.9875C124.478 62.67 124.293 59.7714 123.89 57.112C123.459 54.2476 122.803 51.3284 121.155 48.9494C119.508 46.5703 116.671 44.8476 113.799 45.1962C111.516 45.497 109.513 47.0626 107.216 47.1993C105.596 47.295 104.03 46.6592 102.485 46.1601C100.825 45.6249 99.1203 45.2361 97.392 44.998C96.2435 44.8407 94.8967 44.8134 94.1242 45.6816C93.8172 46.0579 93.5851 46.4895 93.4406 46.9532L91.9571 51.055C91.8805 51.1943 91.8403 51.3507 91.8403 51.5096C91.8403 51.6686 91.8805 51.8249 91.9571 51.9642C92.0938 52.1283 92.3262 52.1762 92.504 52.2992C93.6798 53.058 92.1006 54.9312 93.0714 55.8541C94.0422 56.777 97.4672 56.1754 98.8276 56.4967Z" fill="black"/>
<path d="M99.1626 56.1618C100.424 56.4202 101.538 57.1547 102.273 58.2127C103.134 59.58 103.114 61.4531 104.324 62.5196C105.237 63.1945 106.379 63.4842 107.503 63.3263C108.614 63.1647 109.74 63.1257 110.86 63.2101C112.671 63.504 114.155 64.844 115.16 66.3753C116.073 67.9633 116.886 69.6073 117.593 71.2975C117.882 71.9679 118.295 72.5779 118.81 73.0954C119.07 73.352 119.387 73.5439 119.735 73.6555C120.083 73.7672 120.452 73.7954 120.813 73.7381C121.75 71.6871 120.943 69.1987 121.839 67.1547C122.323 66.2888 122.86 65.4532 123.445 64.6525C124.813 62.335 124.628 59.4364 124.225 56.777C123.794 53.9126 123.138 50.9935 121.49 48.6144C119.843 46.2354 117.005 44.5126 114.134 44.8613C111.851 45.1621 109.848 46.7276 107.551 46.8643C105.931 46.96 104.365 46.3243 102.82 45.8252C101.16 45.29 99.4553 44.9011 97.727 44.663C96.5784 44.5058 95.2317 44.4784 94.4592 45.3467C94.1521 45.7229 93.9201 46.1546 93.7755 46.6182L92.292 50.72C92.2154 50.8593 92.1753 51.0157 92.1753 51.1747C92.1753 51.3336 92.2154 51.49 92.292 51.6293C92.4288 51.7933 92.6612 51.8412 92.8389 51.9643C94.0148 52.7231 92.4356 54.5963 93.4064 55.5192C94.3771 56.4421 97.8021 55.8405 99.1626 56.1618Z" fill="#472727"/>
<path d="M170.958 83.3636C170.958 83.3636 160.58 93.0713 146.183 95.0812C146.183 95.0812 141.903 96.0519 138.827 101.706C137.706 103.831 136.911 106.112 136.469 108.474L121.018 82.2972L120.061 80.677H145.841C147.82 78.301 150.27 76.3606 153.036 74.9781C155.803 73.5956 158.825 72.801 161.913 72.6442L165.933 69.9644C165.933 69.9644 161.913 38.8248 155.891 37.1498C155.891 37.1498 152.951 34.2102 149.608 31.3526C147.556 29.6299 146.221 27.2026 145.866 24.5467C145.51 21.8908 146.16 19.198 147.687 16.9963C147.769 16.88 147.851 16.7638 147.94 16.6544C151.358 12.1903 158.502 13.7421 159.938 19.1976C160.935 22.9033 161.709 26.6655 162.255 30.4639L163.93 36.1586L169.96 48.5461L179.668 71.9811C179.668 71.9811 181.671 77.3408 170.958 83.3636Z" fill="#DB8B8B"/>
<path d="M93.9466 84.7036L91.9367 102.478L87.4179 102.731L85.907 102.813C85.907 102.813 79.8774 108.843 73.8546 110.846C67.8317 112.849 59.7922 118.215 59.7922 118.215L35.3522 128.908L27.3194 132.592C27.3194 132.592 7.22737 146.682 3.20759 140.29C-0.812191 133.898 20.6403 127.54 20.6403 127.54L34.7027 120.171C54.1248 103.428 60.8176 105.131 60.8176 105.131L75.8576 96.428C79.5333 91.0482 84.9707 87.1194 91.2326 85.3189C92.1209 85.0475 93.028 84.8419 93.9466 84.7036Z" fill="#DB8B8B"/>
<path opacity="0.1" d="M138.827 101.706C137.706 103.831 136.911 106.112 136.469 108.474L121.019 82.2971C121.387 81.7864 121.709 81.2443 121.982 80.6769C122.378 79.8748 122.689 79.0341 122.912 78.168L125.148 78.6739L131.198 80.0411L133.297 80.5128C133.297 80.5675 133.256 80.6222 133.242 80.6769C130.425 88.9489 135.737 97.6106 138.827 101.706Z" fill="black"/>
<path opacity="0.1" d="M93.9464 84.7036L91.9365 102.478L87.4177 102.731C89.3387 99.3129 90.6445 90.2616 91.2393 85.3462C92.1247 85.0659 93.0295 84.8511 93.9464 84.7036Z" fill="black"/>
<path d="M137.61 114.667C132.587 123.921 129.999 134.3 130.09 144.829V146.142V146.313C130.09 146.313 133.775 156.355 130.09 156.355C126.405 156.355 126.74 161.38 122.058 162.385C117.375 163.39 100.961 170.418 95.9427 167.41C90.9248 164.402 87.575 158.037 87.575 158.037V103.456C87.6433 103.374 87.7117 103.285 87.7732 103.189C90.665 99.0872 92.2647 81.9963 92.2647 81.9963C93.2204 82.1433 94.1835 82.2369 95.1496 82.2766C98.0278 82.4133 101.302 82.2766 102.957 82.1946L103.982 82.133C106.874 84.3959 110.819 84.724 112.774 84.724C113.46 84.7266 114.145 84.7769 114.825 84.8744C120.478 85.6674 122.201 78.1543 122.201 78.1543L124.437 78.6602L130.487 80.0275L132.586 80.4992C128.819 91.1707 138.738 102.581 139.989 103.962L140.119 104.105C140.226 107.785 139.36 111.428 137.61 114.667Z" fill="#645C9C"/>
<path opacity="0.3" d="M95.1565 82.3041C95.1565 86.7409 94.0968 101.446 87.5886 103.572V103.456C87.657 103.374 87.7253 103.285 87.7869 103.189C90.6786 99.0874 92.2784 81.9965 92.2784 81.9965C93.2313 82.1523 94.1921 82.255 95.1565 82.3041Z" fill="white"/>
<path opacity="0.3" d="M140.024 103.982C127.773 103.353 129.222 87.3287 130.521 80.0548L132.62 80.5265C128.853 91.1912 138.766 102.601 140.024 103.982Z" fill="white"/>
<g opacity="0.1">
<path opacity="0.1" d="M140.153 104.461C140.15 104.426 140.135 104.393 140.112 104.368C140.089 104.342 140.058 104.324 140.024 104.317C137.289 103.633 140.324 104.625 137.289 103.633C137.173 103.592 137.453 103.134 137.453 103.134C137.545 106.811 136.668 110.446 134.91 113.676C129.887 122.93 127.299 133.309 127.39 143.838V145.151V145.315C127.39 145.315 131.075 155.357 127.39 155.357C123.705 155.357 124.04 160.382 119.357 161.387C115.064 162.31 100.947 168.278 94.7463 166.959C95.1292 167.239 95.5188 167.506 95.9222 167.745C100.947 170.76 117.354 163.725 122.037 162.72C126.72 161.715 126.392 156.69 130.07 156.69C133.748 156.69 130.07 146.648 130.07 146.648V146.477V145.164C129.979 134.635 132.567 124.256 137.59 115.002C139.355 111.775 140.239 108.139 140.153 104.461Z" fill="black"/>
<path opacity="0.1" d="M104.796 82.8441C104.638 82.7348 104.474 82.6185 104.324 82.5023H103.969C104.242 82.639 104.522 82.7416 104.796 82.8441Z" fill="black"/>
</g>
<path d="M210.465 250.444L206.452 259.482C205.307 257.598 204.051 255.783 202.692 254.047C200.743 251.443 198.442 249.122 195.856 247.149C193.057 245.113 190.415 242.869 187.953 240.436C186.066 238.611 184.002 236.799 182.539 236.04C181.689 235.614 180.877 235.115 180.112 234.55C177.446 232.499 172.209 228.295 170.972 225.334C170.972 225.334 160.259 215.292 155.569 213.282L150.893 207.813L145.52 201.544L159.247 187.817L163.287 193.47L169.297 201.879C172.015 205.257 175.124 208.299 178.56 210.944C181.982 213.426 185.143 216.251 187.994 219.373C192.488 224.261 196.432 229.628 199.753 235.377L208.387 247.512L208.448 247.607L209.816 249.515L210.465 250.444Z" fill="#DB8B8B"/>
<path d="M125.421 251.449L120.061 264.172L115.713 259.482L113.922 255.722L112.364 252.447L104.659 247.758L97.139 242.849C95.8403 242.003 94.4235 241.353 92.9347 240.921C86.4333 239.021 87.5544 235.37 87.5544 235.37L88.1492 225.895L88.5594 219.298L106.334 217.288L105.445 222.313L104.324 228.671C111.024 229.676 115.372 240.723 115.372 240.723C118.017 244.695 120.526 246.343 121.928 246.999C122.293 247.183 122.678 247.323 123.076 247.416L125.421 251.449Z" fill="#DB8B8B"/>
<path opacity="0.1" d="M208.448 247.614L208.291 247.525H208.387L208.448 247.614Z" fill="black"/>
<path opacity="0.1" d="M210.465 250.444L206.452 259.482C205.307 257.598 204.051 255.783 202.692 254.047C203.308 254.635 206.746 257.766 207.847 254.909C208.269 253.743 208.755 252.602 209.303 251.49C209.643 250.898 209.816 250.225 209.802 249.542L210.465 250.444Z" fill="black"/>
<path opacity="0.1" d="M210.137 249.85L208.77 247.942L208.708 247.846L200.074 235.712C196.746 229.966 192.796 224.604 188.295 219.722C185.444 216.599 182.283 213.775 178.861 211.292C175.425 208.648 172.316 205.605 169.598 202.227L163.609 193.853L159.569 188.199L158.981 188.787L162.597 193.853L168.606 202.262C171.328 205.63 174.44 208.664 177.876 211.299C181.299 213.782 184.46 216.606 187.311 219.729C191.804 224.61 195.747 229.97 199.069 235.712L207.717 247.86L207.779 247.956L209.146 249.863L209.83 250.793L206.234 258.887C206.61 259.482 206.822 259.831 206.822 259.831L210.841 250.793L210.137 249.85Z" fill="black"/>
<path opacity="0.1" d="M125.421 251.449L120.061 264.172L115.713 259.482L113.922 255.722L119.063 259.14C124.115 255.982 122.167 247.908 121.934 247.006C122.299 247.19 122.685 247.33 123.083 247.423L125.421 251.449Z" fill="black"/>
<path d="M122.242 247.265C122.242 247.265 124.751 256.153 119.398 259.489L112.363 254.799C112.363 254.799 110.996 258.149 115.378 262.504C117.008 263.965 118.28 265.782 119.093 267.814C119.906 269.846 120.24 272.039 120.068 274.221C120.068 274.221 120.752 282.254 124.758 280.251C124.758 280.251 131.122 278.884 130.787 267.863C130.787 267.863 128.251 258.668 131.204 254.779C131.287 254.674 131.371 254.571 131.457 254.471C134.807 250.786 130.453 245.098 130.453 245.098C130.453 245.098 122.577 241.913 122.242 247.265Z" fill="#535461"/>
<path opacity="0.1" d="M130.111 156.362C126.426 156.362 126.761 161.387 122.078 162.392C117.395 163.397 100.981 170.425 95.9632 167.417C90.9453 164.409 87.5955 158.044 87.5955 158.044V157.361C95.9632 161.715 106.348 157.361 106.348 157.361C113.745 158.783 126.467 149.082 130.118 146.135V146.306C130.118 146.306 133.789 156.362 130.111 156.362Z" fill="black"/>
<path opacity="0.1" d="M88.5867 219.305L106.361 217.295L105.473 222.32C99.9692 224.876 92.0459 225.663 88.2039 225.902L88.5867 219.305Z" fill="black"/>
<path opacity="0.1" d="M163.274 193.484C162.433 199.637 155.556 204.921 150.88 207.84L145.506 201.571L159.234 187.844L163.274 193.484Z" fill="black"/>
<path d="M106.334 158.03C106.334 158.03 95.9562 162.385 87.5817 158.03L85.9068 180.802C85.9068 180.802 86.2418 190.845 84.9018 196.526C83.5619 202.207 85.9068 225.321 85.9068 225.321C85.9068 225.321 106.669 224.986 110.682 217.288C110.682 217.288 119.384 199.876 117.716 193.853L135.799 197.873L146.518 209.576C146.518 209.576 164.935 200.874 163.26 190.154L138.478 161.038L131.116 145.998C131.116 145.998 115.043 159.705 106.334 158.03Z" fill="#645C9C"/>
<path opacity="0.3" d="M124.471 78.6807C117.012 92.1552 106.013 84.6967 102.964 82.2219L103.989 82.1604C106.881 84.4232 110.825 84.7514 112.781 84.7514C113.467 84.754 114.152 84.8042 114.832 84.9018C120.485 85.6948 122.208 78.1816 122.208 78.1816L124.471 78.6807Z" fill="white"/>
<path d="M208.64 247.86C209.787 247.796 210.931 248.032 211.958 248.545C212.986 249.058 213.861 249.831 214.499 250.786C214.499 250.786 223.195 258.115 227.878 258.798C227.878 258.798 241.94 264.828 237.92 273.196C233.9 281.563 224.193 273.879 224.193 273.879C224.193 273.879 213.815 264.507 210.465 265.177C210.465 265.177 201.257 259.653 202.945 254.293C202.945 254.293 206.979 258.395 208.196 255.243C208.615 254.078 209.099 252.937 209.645 251.825C210.294 250.54 210.629 248.865 208.64 247.86Z" fill="#535461"/>
<path opacity="0.1" d="M104.133 158.112C100.632 159.131 93.5909 160.492 87.5886 157.367L87.4792 158.864C94.76 161.51 102.813 158.625 104.133 158.112Z" fill="black"/>
<path opacity="0.1" d="M111.741 156.937C109.998 157.501 108.148 157.658 106.334 157.395C106.334 157.395 105.596 157.702 104.365 158.078C106.505 158.441 109.075 157.914 111.741 156.937Z" fill="black"/>
<path opacity="0.1" d="M163.356 191.187C163.035 201.12 146.518 208.927 146.518 208.927L146.286 208.674C150.859 206.165 162.604 198.83 161.25 190.175L136.469 161.038L129.673 147.14C130.583 146.415 131.109 145.971 131.109 145.971L138.479 161.011L163.254 190.141C163.311 190.487 163.345 190.836 163.356 191.187Z" fill="black"/>
<path opacity="0.1" d="M115.714 193.853C117.388 199.883 108.679 217.288 108.679 217.288C107.489 219.564 104.844 221.198 101.699 222.367C105.691 221.178 109.253 219.366 110.689 216.618C110.689 216.618 118.414 201.168 117.908 194.338L115.714 193.853Z" fill="black"/>
<path opacity="0.3" d="M110.019 106.97C105.301 106.97 101.48 112.439 101.48 119.193C101.48 125.947 105.301 131.417 110.019 131.417C114.736 131.417 118.557 125.947 118.557 119.193C118.557 112.439 114.736 106.97 110.019 106.97ZM110.019 126.392C107.243 126.392 104.987 123.172 104.987 119.193C104.987 115.214 107.236 111.994 110.019 111.994C112.801 111.994 115.05 115.214 115.05 119.193C115.05 123.172 112.794 126.392 110.019 126.392Z" fill="white"/>
<path d="M165.981 20.7085C165.981 21.105 165.981 21.4969 165.981 21.8843C165.981 22.0963 165.981 22.3082 165.933 22.5133C165.647 26.025 164.47 29.4059 162.515 32.3371C162.385 32.5354 162.249 32.7268 162.112 32.9182C160.248 35.5324 157.786 37.6641 154.933 39.1361C152.079 40.6081 148.916 41.3779 145.705 41.3816C145.247 41.3816 144.789 41.3816 144.337 41.3338C143.886 41.2859 143.496 41.2654 143.079 41.2107C140.181 40.8178 137.402 39.8023 134.934 38.234C132.465 36.6657 130.365 34.5817 128.778 32.1252C128.668 31.968 128.566 31.7971 128.47 31.6398V31.6056C126.465 28.3249 125.408 24.5533 125.414 20.7085C125.413 19.6836 125.486 18.6601 125.633 17.6458L125.742 16.9622C126.297 13.8343 127.565 10.8763 129.447 8.31777C131.33 5.75923 133.777 3.669 136.599 2.2093L137.337 1.84697C139.737 0.739624 142.331 0.117041 144.972 0.0149754C147.613 -0.0870899 150.248 0.333355 152.726 1.25219C153.371 1.49208 154.003 1.76592 154.619 2.07256C159.161 4.33448 162.707 8.19288 164.58 12.9082C164.648 13.0654 164.703 13.2158 164.758 13.3731C165.6 15.7256 166.014 18.2099 165.981 20.7085Z" fill="#E54861"/>
<path opacity="0.5" d="M164.675 13.3731C163.375 13.7588 162.026 13.9546 160.669 13.9542H160.437H159.904C159.575 13.9542 159.254 13.9132 158.946 13.8722C156.288 13.5543 153.74 12.6177 151.508 11.1377C145.54 5.0533 139.695 2.97504 136.537 2.25039L137.275 1.88806C140.379 2.67424 145.417 4.62259 150.661 9.54477C152.013 10.8238 153.607 11.8188 155.351 12.4707C156.549 12.9136 157.794 13.2142 159.063 13.3663C159.336 13.3663 159.603 13.421 159.869 13.4415H160.409C161.795 13.4794 163.179 13.3042 164.511 12.9219C164.559 13.0928 164.621 13.2432 164.675 13.3731Z" fill="white"/>
<path opacity="0.5" d="M165.947 21.8843C165.947 22.0962 165.947 22.3081 165.899 22.5132C164.151 21.3949 162.282 20.4776 160.327 19.7786L159.815 19.5941C155.156 18.0288 150.343 16.9654 145.458 16.422C133.973 14.959 128.244 16.3263 125.517 17.6252L125.626 16.9416C128.579 15.6426 134.397 14.46 145.527 15.8751C150.408 16.4202 155.219 17.4718 159.883 19.013L160.396 19.1975C162.338 19.8891 164.199 20.79 165.947 21.8843Z" fill="white"/>
<path opacity="0.5" d="M160.396 19.2455C160.396 19.4301 160.355 19.6147 160.334 19.8061C160.216 20.7404 160.047 21.718 159.828 22.7389C159.66 23.5091 159.473 24.2497 159.268 24.9607C159.213 25.1453 159.158 25.3299 159.104 25.5076C156.506 33.8275 151.221 38.0455 147.044 40.1511C146.158 40.602 145.244 40.9993 144.31 41.3406L143.052 41.2176C144.364 40.8093 145.64 40.2925 146.867 39.6725C150.969 37.6216 156.157 33.431 158.687 25.1931C158.741 25.0291 158.789 24.8581 158.837 24.6872C159.029 24.0264 159.202 23.3427 159.357 22.6363C159.58 21.6109 159.751 20.6082 159.869 19.6283C159.869 19.4437 159.91 19.2523 159.931 19.0677C160.105 17.3722 160.105 15.6633 159.931 13.9678C159.931 13.7901 159.897 13.6123 159.869 13.4414C159.453 9.75898 157.855 6.31026 155.316 3.61074C154.487 2.74202 153.571 1.96084 152.582 1.27954C153.227 1.51943 153.859 1.79328 154.476 2.09991C154.877 2.45085 155.273 2.83368 155.665 3.24842C158.278 6.05888 159.911 9.63951 160.321 13.4551C160.321 13.626 160.362 13.8038 160.382 13.9747C160.569 15.7264 160.574 17.4928 160.396 19.2455Z" fill="white"/>
<path opacity="0.5" d="M162.461 32.3439C162.331 32.5422 162.194 32.7336 162.057 32.925C161.483 30.4365 160.563 28.0409 159.323 25.8083C159.257 25.6973 159.177 25.596 159.083 25.5075C158.947 25.383 158.792 25.2793 158.625 25.1999C155.993 23.8942 148.132 26.0818 142.286 29.2402C137.788 31.6739 131.902 32.1046 128.682 32.132L128.375 31.6466V31.6124C131.451 31.6124 137.494 31.2433 142.047 28.7822C147.516 25.8425 155.652 23.3131 158.783 24.6804C158.949 24.7529 159.107 24.8422 159.254 24.947C159.469 25.1003 159.651 25.2957 159.788 25.5212C160.972 27.6693 161.871 29.963 162.461 32.3439Z" fill="white"/>
<defs>
<linearGradient id="paint0_linear" x1="164618" y1="183579" x2="164618" y2="75877.5" gradientUnits="userSpaceOnUse">
<stop stop-color="#808080" stop-opacity="0.25"/>
<stop offset="0.54" stop-color="#808080" stop-opacity="0.12"/>
<stop offset="1" stop-color="#808080" stop-opacity="0.1"/>
</linearGradient>
</defs>
</svg>
