<svg width="48" height="46" viewBox="0 0 48 46" fill="none" xmlns="http://www.w3.org/2000/svg">
<path d="M47.5334 34.5V37.5666H45.2334V32.2C46.5061 32.2 47.5334 33.2273 47.5334 34.5Z" fill="white" fill-opacity="0.3"/>
<path d="M42.9333 30.1469V32.2C42.9333 33.0433 41.9059 33.7333 40.6333 33.7333C39.3606 33.7333 38.3333 33.0433 38.3333 32.2V30.1469C39.0309 30.4834 39.8053 30.6682 40.6333 30.6682C41.4613 30.6682 42.2356 30.4842 42.9333 30.1469Z" fill="white" fill-opacity="0.3"/>
<path d="M45.9999 23V25.3008C45.9999 27.439 44.7503 29.2867 42.9333 30.1461C42.2356 30.4827 41.4613 30.6674 40.6333 30.6674C39.8053 30.6674 39.0309 30.4834 38.3333 30.1461C36.5163 29.2867 35.2666 27.439 35.2666 25.3008V23.0153L36.7999 21.4743L36.8076 21.4667C36.9609 21.528 38.6016 22.2487 40.588 22.2487C42.5354 22.2487 44.2374 21.5602 44.4436 21.4743L44.4666 21.482L45.9999 23Z" fill="white" fill-opacity="0.3"/>
<path d="M44.4668 21.482L44.4438 21.4744C44.3694 21.5043 44.098 21.6139 43.6978 21.7396V25.3016C43.6978 27.4398 42.4482 29.2875 40.6312 30.1469C40.2678 30.3225 39.8829 30.4536 39.4819 30.5425C39.8522 30.623 40.2356 30.6682 40.6335 30.6682C41.4615 30.6682 42.2358 30.4842 42.9335 30.1469C44.7505 29.2875 46.0001 27.4398 46.0001 25.3016V23L44.4668 21.482Z" fill="white" fill-opacity="0.3"/>
<path d="M38.3334 32.2C38.3334 33.0433 39.3608 33.7333 40.6334 33.7333C41.9061 33.7333 42.9334 33.0433 42.9334 32.2H45.2334V37.5666H36.0334V32.2H38.3334Z" fill="white" fill-opacity="0.3"/>
<path d="M36.0334 32.2V37.5666H33.7334V34.5C33.7334 33.2273 34.7607 32.2 36.0334 32.2Z" fill="white" fill-opacity="0.3"/>
<path d="M36.8076 21.4666L36.7999 21.4743L35.2666 23.0153V21.4666C35.2666 18.5081 37.6663 16.1 40.6333 16.1C43.6003 16.1 45.9999 18.5081 45.9999 21.4666V23L44.4666 21.482L44.4436 21.4743C44.2366 21.5594 42.5354 22.2486 40.588 22.2486C38.6016 22.2486 36.9609 21.5287 36.8076 21.4666Z" fill="white" fill-opacity="0.3"/>
<path d="M40.6335 16.1C40.2379 16.1 39.853 16.1467 39.4819 16.2272C41.8939 16.7547 43.6978 18.9014 43.6978 21.4666V21.7388C44.0973 21.6131 44.3694 21.5034 44.4438 21.4735L44.4668 21.482L46.0001 23V21.4666C46.0001 18.5081 43.6005 16.1 40.6335 16.1Z" fill="white" fill-opacity="0.3"/>
<path d="M32.9666 42.1667V45.2334C32.9666 45.6543 32.6216 46 32.1999 46H29.8999V38.41C31.6479 38.7619 32.9666 40.3114 32.9666 42.1667Z" fill="white" fill-opacity="0.3"/>
<path d="M30.6667 27.6153V29.9C30.6667 32.6071 29.1027 34.9523 26.8334 36.0801C25.9134 36.5393 24.863 36.8 23.7667 36.8C22.6704 36.8 21.62 36.5393 20.7 36.0801C18.4384 34.96 16.882 32.6301 16.8667 29.9391V29.9V27.6153L19.1667 26.0667C19.1667 26.0667 21.4744 26.8333 24.15 26.8333C26.8257 26.8333 28.3667 26.0667 28.3667 26.0667L30.6667 27.6153Z" fill="white" fill-opacity="0.3"/>
<path d="M28.3668 26.0667L28.3645 26.0682V29.9C28.3645 32.6071 26.8005 34.9523 24.5311 36.0801C23.94 36.3752 23.2922 36.5769 22.6152 36.6926C22.9917 36.7563 23.3742 36.8 23.7668 36.8C24.8631 36.8 25.9134 36.5393 26.8334 36.0801C29.1028 34.9523 30.6668 32.6078 30.6668 29.9V27.6153L28.3668 26.0667Z" fill="white" fill-opacity="0.3"/>
<path d="M26.8333 36.0801V38.3333C26.8333 39.5983 25.461 40.6333 23.7666 40.6333C22.0723 40.6333 20.7 39.5983 20.7 38.3333V36.0801C21.62 36.5393 22.6703 36.8 23.7666 36.8C24.863 36.8 25.9133 36.5393 26.8333 36.0801Z" fill="white" fill-opacity="0.3"/>
<path d="M20.7 38.3334C20.7 39.5984 22.0723 40.6334 23.7666 40.6334C25.461 40.6334 26.8333 39.5984 26.8333 38.3334H29.1333C29.394 38.3334 29.6546 38.3556 29.9 38.41V46H17.6333V38.41C17.8786 38.3564 18.1393 38.3334 18.4 38.3334H20.7Z" fill="white" fill-opacity="0.3"/>
<path d="M30.6667 25.3V27.6154L28.3667 26.0667C28.3667 26.0667 26.8257 26.8334 24.15 26.8334C21.4744 26.8334 19.1667 26.0667 19.1667 26.0667L16.8667 27.6154V25.3C16.8667 21.9045 19.6114 19.1598 23 19.1598H27.6V22.2265C29.2944 22.2265 30.6667 23.5988 30.6667 25.3Z" fill="white" fill-opacity="0.3"/>
<path d="M30.6667 27.6154V25.3C30.6667 23.5988 29.2944 22.2265 27.6 22.2265V19.1598H25.3V22.2265C25.3 23.4968 26.3297 24.5265 27.6 24.5265C28.0232 24.5265 28.3667 24.8738 28.3667 25.3008V26.0675L30.6667 27.6154Z" fill="white" fill-opacity="0.3"/>
<path d="M17.6333 38.41V46H15.3333C14.9117 46 14.5667 45.6543 14.5667 45.2334V42.1667C14.5667 40.3114 15.8853 38.7619 17.6333 38.41Z" fill="white" fill-opacity="0.3"/>
<path d="M13.8 34.5V37.5666H11.5V32.2C12.7727 32.2 13.8 33.2273 13.8 34.5Z" fill="white" fill-opacity="0.3"/>
<path d="M30.0534 3.2821C28.6658 1.29643 26.3658 0 23.7668 0C21.1678 0 18.8678 1.29567 17.4801 3.28133C16.6138 4.5241 16.1001 6.03443 16.1001 7.66667C16.1001 9.2989 16.6138 10.81 17.4801 12.052C18.8678 14.0377 21.1678 15.3333 23.7668 15.3333C26.3658 15.3333 28.6658 14.0377 30.0534 12.052C30.9198 10.81 31.4334 9.29967 31.4334 7.66667C31.4334 6.03367 30.9198 4.5241 30.0534 3.2821Z" fill="white" fill-opacity="0.3"/>
<path d="M12.2668 25.2939V25.3016C12.2668 27.4398 11.0094 29.2875 9.20011 30.1385C8.50245 30.4766 7.72811 30.6613 6.90011 30.6613C6.07211 30.6613 5.29778 30.4773 4.60011 30.1385C2.79078 29.2882 1.53345 27.4398 1.53345 25.3016V25.2939V22.3338C5.98778 22.8551 7.76645 21.3601 9.20011 21.0611C10.1508 20.8618 10.9481 21.1761 12.2668 22.9011V25.2939Z" fill="white" fill-opacity="0.3"/>
<path d="M9.96443 21.0372V25.2938V25.3014C9.96443 27.4397 8.7071 29.2873 6.89777 30.1383C6.53437 30.3147 6.1495 30.4465 5.74854 30.5355C6.11884 30.616 6.50217 30.6612 6.90007 30.6612C7.72807 30.6612 8.5024 30.4772 9.20007 30.1383C11.0094 29.2881 12.2667 27.4397 12.2667 25.3014V25.2938V22.901C11.3115 21.6513 10.6291 21.1476 9.96443 21.0372Z" fill="white" fill-opacity="0.3"/>
<path d="M2.3 32.2V37.5666H0V34.5C0 33.2273 1.02733 32.2 2.3 32.2Z" fill="white" fill-opacity="0.3"/>
<path d="M12.2666 21.843V22.9018C10.948 21.1768 10.1506 20.8625 9.19995 21.0618L10.7333 17.9484C11.6916 18.968 12.2666 20.3411 12.2666 21.843Z" fill="white" fill-opacity="0.3"/>
<path d="M9.2001 30.1469V32.2C9.2001 33.0434 8.17276 33.7334 6.9001 33.7334C5.62743 33.7334 4.6001 33.0434 4.6001 32.2V30.1469V30.1377C5.29776 30.4758 6.0721 30.6606 6.9001 30.6606C7.7281 30.6606 8.50243 30.4766 9.2001 30.1377V30.1469Z" fill="white" fill-opacity="0.3"/>
<path d="M10.7333 17.9484L9.19993 21.0618C7.76627 21.3616 5.9876 22.8558 1.53327 22.3345C1.28793 22.303 1.03493 22.2731 0.766602 22.2264V21.843C0.766602 18.6683 3.3426 16.093 6.5166 16.093C8.18793 16.093 9.6906 16.8053 10.7333 17.9484Z" fill="white" fill-opacity="0.3"/>
<path d="M4.60005 32.2C4.60005 33.0433 5.62738 33.7333 6.90005 33.7333C8.17271 33.7333 9.20005 33.0433 9.20005 32.2H11.5V37.5666H2.30005V32.2H4.60005Z" fill="white" fill-opacity="0.3"/>
<path d="M28.4534 8.43333H31.3905C31.4166 8.18033 31.4334 7.9258 31.4334 7.66667C31.4334 7.40753 31.4166 7.153 31.3905 6.9H28.4534C28.6941 5.7086 29.4807 4.70043 30.5947 4.18753C30.4337 3.87243 30.2543 3.5696 30.0534 3.28133C29.9599 3.14717 29.8518 3.02603 29.7506 2.89877C28.2058 3.69073 27.1416 5.17423 26.8963 6.9H24.5334V0.0483C24.2804 0.023 24.0267 0 23.7668 0C23.5069 0 23.2531 0.0222333 23.0001 0.0483V6.9H20.6372C20.3919 5.17347 19.3278 3.68997 17.7822 2.89877C17.681 3.02603 17.5736 3.14717 17.4793 3.28133C17.2785 3.5696 17.0991 3.87243 16.9381 4.18753C18.052 4.70043 18.8386 5.7086 19.0794 6.9H16.1423C16.117 7.15377 16.1001 7.4083 16.1001 7.66667C16.1001 7.92503 16.117 8.18033 16.143 8.43333H19.0801C18.8394 9.6255 18.0528 10.6329 16.9396 11.1458C17.0998 11.4609 17.2792 11.7645 17.4801 12.052C17.5736 12.1862 17.6817 12.3073 17.7829 12.4346C19.3285 11.6441 20.3919 10.1599 20.638 8.43333H23.0001V15.2858C23.2531 15.3111 23.5069 15.3333 23.7668 15.3333C24.0267 15.3333 24.2804 15.3111 24.5334 15.285V8.43333H26.8963C27.1416 10.1599 28.2058 11.6441 29.7514 12.4346C29.8526 12.3073 29.9599 12.1862 30.0542 12.052C30.2551 11.7645 30.4345 11.4609 30.5947 11.1458C29.4807 10.6337 28.6949 9.6255 28.4534 8.43333Z" fill="white" fill-opacity="0.3"/>
</svg>
