<svg width="17" height="17" viewBox="0 0 17 17" fill="none" xmlns="http://www.w3.org/2000/svg">
<path d="M14.5104 2.48957C12.905 0.884166 10.7704 0 8.5 0C6.22957 0 4.09504 0.884166 2.48957 2.48957C0.884166 4.09504 0 6.22957 0 8.5C0 10.7704 0.884166 12.905 2.48957 14.5104C4.09504 16.1158 6.22957 17 8.5 17C10.0543 17 11.5752 16.5764 12.8982 15.775C13.2118 15.585 13.3121 15.1767 13.1221 14.863C12.932 14.5492 12.5237 14.449 12.21 14.6391C11.0946 15.3147 9.81169 15.6719 8.5 15.6719C4.54541 15.6719 1.32812 12.4546 1.32812 8.5C1.32812 4.54541 4.54541 1.32812 8.5 1.32812C12.4546 1.32812 15.6719 4.54541 15.6719 8.5C15.6719 9.91409 15.2514 11.2905 14.4558 12.4805C14.2519 12.7854 14.3339 13.1978 14.6387 13.4016C14.9437 13.6055 15.356 13.5236 15.5598 13.2187C16.502 11.8095 17 10.1778 17 8.5C17 6.22957 16.1158 4.09504 14.5104 2.48957Z" fill="#F1C644"/>
<path d="M6.45137 12.4045C6.55178 12.4588 6.65992 12.4845 6.76657 12.4845C7.00261 12.4845 7.23121 12.3583 7.35131 12.1361L10.9408 5.49549C11.1152 5.17282 10.9951 4.7699 10.6725 4.59555C10.3498 4.42114 9.94683 4.54133 9.77252 4.86393L6.18299 11.5046C6.00858 11.8272 6.12874 12.2301 6.45137 12.4045Z" fill="#F1C644"/>
<path d="M7.4043 6.17578C7.4043 5.26037 6.65955 4.51562 5.74414 4.51562C4.82873 4.51562 4.08398 5.26037 4.08398 6.17578C4.08398 7.09119 4.82873 7.83594 5.74414 7.83594C6.65955 7.83594 7.4043 7.09119 7.4043 6.17578ZM5.74414 6.50781C5.56106 6.50781 5.41211 6.35886 5.41211 6.17578C5.41211 5.9927 5.56106 5.84375 5.74414 5.84375C5.92722 5.84375 6.07617 5.9927 6.07617 6.17578C6.07617 6.35886 5.92722 6.50781 5.74414 6.50781Z" fill="#F1C644"/>
<path d="M11.2227 12.4844C12.1381 12.4844 12.8828 11.7396 12.8828 10.8242C12.8828 9.90881 12.1381 9.16406 11.2227 9.16406C10.3072 9.16406 9.5625 9.90881 9.5625 10.8242C9.5625 11.7396 10.3072 12.4844 11.2227 12.4844ZM11.2227 10.4922C11.4057 10.4922 11.5547 10.6411 11.5547 10.8242C11.5547 11.0073 11.4057 11.1562 11.2227 11.1562C11.0396 11.1562 10.8906 11.0073 10.8906 10.8242C10.8906 10.6411 11.0396 10.4922 11.2227 10.4922Z" fill="#F1C644"/>
</svg>
